<svg width="513" height="513" viewBox="0 0 513 513" fill="none" xmlns="http://www.w3.org/2000/svg">
<g clip-path="url(#clip0_2783_4062)">
<path d="M355.222 257.611H180.823C177.637 257.611 175.055 255.028 175.055 251.843V124.293C175.055 121.107 177.637 118.525 180.823 118.525H355.222C358.408 118.525 360.99 121.107 360.99 124.293V251.843C360.99 255.028 358.408 257.611 355.222 257.611Z" fill="#E9E8FF" fill-opacity="0.5"/>
<path d="M224.158 242.584H186.728C184.991 242.584 183.582 241.175 183.582 239.438V200.803C183.582 199.066 184.991 197.657 186.728 197.657H224.158C225.896 197.657 227.304 199.066 227.304 200.803V239.438C227.304 241.175 225.896 242.584 224.158 242.584Z" fill="#71BFFF"/>
<path d="M196.05 204.67H222.661V206.219H196.05V204.67Z" fill="#0762AD"/>
<path d="M193.393 205.444C193.393 206.871 192.236 208.027 190.809 208.027C189.382 208.027 188.226 206.871 188.226 205.444C188.226 204.017 189.382 202.86 190.809 202.86C192.236 202.86 193.393 204.017 193.393 205.444Z" fill="white"/>
<path d="M196.05 214.454H222.661V216.003H196.05V214.454Z" fill="#0762AD"/>
<path d="M193.393 215.229C193.393 216.656 192.236 217.812 190.809 217.812C189.382 217.812 188.226 216.656 188.226 215.229C188.226 213.802 189.382 212.646 190.809 212.646C192.236 212.646 193.393 213.802 193.393 215.229Z" fill="white"/>
<path d="M196.05 224.238H222.661V225.787H196.05V224.238Z" fill="#0762AD"/>
<path d="M193.393 225.013C193.393 226.44 192.236 227.597 190.809 227.597C189.382 227.597 188.226 226.44 188.226 225.013C188.226 223.586 189.382 222.43 190.809 222.43C192.236 222.43 193.393 223.586 193.393 225.013Z" fill="white"/>
<path d="M196.05 234.022H222.661V235.571H196.05V234.022Z" fill="#0762AD"/>
<path d="M193.393 234.797C193.393 236.224 192.236 237.381 190.809 237.381C189.382 237.381 188.226 236.224 188.226 234.797C188.226 233.371 189.382 232.214 190.809 232.214C192.236 232.214 193.393 233.371 193.393 234.797Z" fill="white"/>
<path d="M186.231 127.096C186.231 128.559 185.045 129.744 183.582 129.744C182.119 129.744 180.934 128.559 180.934 127.096C180.934 125.633 182.119 124.447 183.582 124.447C185.045 124.447 186.231 125.633 186.231 127.096Z" fill="white"/>
<path d="M202.398 127.096C202.398 128.559 201.211 129.744 199.749 129.744C198.286 129.744 197.1 128.559 197.1 127.096C197.1 125.633 198.286 124.447 199.749 124.447C201.211 124.447 202.398 125.633 202.398 127.096Z" fill="#AADCF8"/>
<path d="M194.314 127.096C194.314 128.559 193.128 129.744 191.666 129.744C190.203 129.744 189.017 128.559 189.017 127.096C189.017 125.633 190.203 124.447 191.666 124.447C193.128 124.447 194.314 125.633 194.314 127.096Z" fill="#0762AD"/>
<path d="M175.055 134.669H360.991" stroke="#0762AD" stroke-width="2.66776" stroke-miterlimit="10"/>
<path d="M344.346 192.061H188.826C185.93 192.061 183.582 189.714 183.582 186.818V147.699C183.582 144.803 185.93 142.455 188.826 142.455H344.346C347.242 142.455 349.59 144.803 349.59 147.699V186.818C349.59 189.714 347.242 192.061 344.346 192.061Z" fill="#0762AD"/>
<path d="M283.42 175.954L273.522 161.045C272.812 159.976 271.241 159.976 270.531 161.045L262.215 173.572L257.932 167.466C257.252 166.496 255.814 166.496 255.134 167.466L249.114 176.051C248.319 177.184 249.129 178.741 250.513 178.741H281.925C283.357 178.741 284.212 177.147 283.42 175.954Z" fill="white"/>
<path d="M256.925 163.115C258.952 163.115 260.596 161.472 260.596 159.445C260.596 157.418 258.952 155.774 256.925 155.774C254.898 155.774 253.255 157.418 253.255 159.445C253.255 161.472 254.898 163.115 256.925 163.115Z" fill="white"/>
<path d="M349.59 257.61H233.214V203.586C233.214 200.312 235.869 197.657 239.143 197.657H343.66C346.935 197.657 349.59 200.312 349.59 203.586V257.61Z" fill="#71BFFF"/>
<path d="M241.59 217.812H341.742V238.435H241.59V217.812Z" fill="#0762AD"/>
<path d="M241.59 243.104H341.742V257.61H241.59V243.104Z" fill="#0762AD"/>
<path d="M257.68 204.058H281.969V207.109H257.68V204.058Z" fill="white"/>
<path d="M257.676 209.305H271.786V211.541H257.676V209.305Z" fill="#0762AD"/>
<path d="M253.535 207.85C253.535 209.619 252.766 211.207 251.54 212.301C250.49 213.245 249.096 213.82 247.565 213.82C246.039 213.82 244.645 213.245 243.589 212.307C242.364 211.213 241.589 209.619 241.589 207.85C241.589 204.549 244.264 201.874 247.565 201.874C250.865 201.874 253.535 204.549 253.535 207.85Z" fill="white"/>
<path d="M250.255 207.109C250.255 208.595 249.05 209.8 247.564 209.8C246.077 209.8 244.872 208.595 244.872 207.109C244.872 205.622 246.077 204.417 247.564 204.417C249.05 204.417 250.255 205.622 250.255 207.109Z" fill="#AADCF8"/>
<path d="M251.54 212.301C250.49 213.245 249.096 213.82 247.565 213.821C246.039 213.821 244.646 213.246 243.589 212.308C244.295 210.826 245.808 209.801 247.565 209.801C249.315 209.801 250.828 210.82 251.54 212.301Z" fill="#AADCF8"/>
<path d="M333.659 207.993C333.659 208.563 333.199 209.025 332.629 209.025C332.06 209.025 331.598 208.563 331.598 207.993C331.598 207.424 332.06 206.962 332.629 206.962C333.199 206.962 333.659 207.424 333.659 207.993Z" fill="white"/>
<path d="M337.336 207.993C337.336 208.563 336.874 209.025 336.305 209.025C335.735 209.025 335.274 208.563 335.274 207.993C335.274 207.424 335.735 206.962 336.305 206.962C336.874 206.962 337.336 207.424 337.336 207.993Z" fill="white"/>
<path d="M341.011 207.993C341.011 208.563 340.55 209.025 339.98 209.025C339.412 209.025 338.95 208.563 338.95 207.993C338.95 207.424 339.412 206.962 339.98 206.962C340.55 206.962 341.011 207.424 341.011 207.993Z" fill="white"/>
<path d="M161.391 182.377H123.813C121.167 182.377 119.02 180.232 119.02 177.585V129.011C119.02 126.365 121.167 124.219 123.813 124.219H161.391C164.038 124.219 166.184 126.365 166.184 129.011V177.585C166.184 180.232 164.038 182.377 161.391 182.377Z" stroke="#71BFFF" stroke-width="2.66776" stroke-miterlimit="10"/>
<path d="M156.303 176.684H118.725C116.078 176.684 113.933 174.538 113.933 171.89V123.318C113.933 120.671 116.078 118.524 118.725 118.524H156.303C158.95 118.524 161.095 120.671 161.095 123.318V171.89C161.095 174.538 158.95 176.684 156.303 176.684Z" fill="#0762AD"/>
<path d="M130.766 124.429H151.14V126.988H130.766V124.429Z" fill="white"/>
<path d="M130.766 128.83H142.602V130.706H130.766V128.83Z" fill="#71BFFF"/>
<path d="M113.932 135.65H161.095" stroke="#71BFFF" stroke-width="2.66776" stroke-miterlimit="10"/>
<path d="M127.291 127.61C127.291 129.094 126.646 130.426 125.619 131.344C124.738 132.136 123.569 132.618 122.284 132.618C121.004 132.618 119.835 132.136 118.949 131.349C117.921 130.431 117.271 129.094 117.271 127.61C117.271 124.842 119.515 122.598 122.284 122.598C125.052 122.598 127.291 124.842 127.291 127.61Z" fill="white"/>
<path d="M124.54 126.987C124.54 128.234 123.529 129.246 122.282 129.246C121.035 129.246 120.025 128.234 120.025 126.987C120.025 125.741 121.035 124.73 122.282 124.73C123.529 124.73 124.54 125.741 124.54 126.987Z" fill="#AADCF8"/>
<path d="M125.619 131.344C124.738 132.135 123.568 132.618 122.284 132.618C121.004 132.618 119.835 132.135 118.949 131.349C119.541 130.106 120.811 129.246 122.284 129.246C123.752 129.246 125.021 130.101 125.619 131.344Z" fill="#AADCF8"/>
<path d="M127.326 156.341L120.768 165.693C119.903 166.926 120.785 168.623 122.292 168.623H138.987L130.374 156.341C129.633 155.284 128.067 155.284 127.326 156.341Z" fill="white"/>
<path d="M144.099 149.346L131.3 168.622H156.509C158.069 168.622 159.001 166.886 158.138 165.586L147.356 149.346C146.582 148.182 144.872 148.182 144.099 149.346Z" fill="white"/>
<path d="M133.274 147.604C133.274 149.813 131.485 151.603 129.277 151.603C127.069 151.603 125.279 149.813 125.279 147.604C125.279 145.396 127.069 143.607 129.277 143.607C131.485 143.607 133.274 145.396 133.274 147.604Z" fill="white"/>
<path d="M461.195 102.124V156.399C461.195 158.423 459.548 160.07 457.524 160.07H376.086C374.058 160.07 372.416 158.423 372.416 156.399V102.124C372.416 100.1 374.058 98.4531 376.086 98.4531H457.524C459.548 98.4531 461.195 100.1 461.195 102.124Z" fill="#71BFFF"/>
<path d="M437.57 130.736C437.57 141.82 428.588 150.803 417.508 150.803C406.423 150.803 397.441 141.82 397.441 130.736C397.441 119.656 406.423 110.674 417.508 110.674C424.801 110.674 431.183 114.565 434.696 120.385C436.521 123.41 437.57 126.95 437.57 130.736Z" fill="white"/>
<path d="M436.901 119.056L417.508 130.735V108.1C425.737 108.1 432.937 112.489 436.901 119.056Z" fill="#0762AD"/>
<path d="M436.033 123.031L417.508 130.735L434.696 120.385L436.033 123.031Z" fill="#71BFFF"/>
<path d="M378.78 142.535H391.48V145.438H378.78V142.535Z" fill="white"/>
<path d="M383.808 147.899H391.476V150.803H383.808V147.899Z" fill="white"/>
<path d="M441.425 108.1H454.125V111.003H441.425V108.1Z" fill="#0762AD"/>
<path d="M441.424 113.464H449.092V116.367H441.424V113.464Z" fill="#0762AD"/>
<path d="M453.929 154.887H443.457C441.99 154.887 440.801 153.698 440.801 152.231V144.158C440.801 142.691 441.99 141.502 443.457 141.502H453.929C455.396 141.502 456.585 142.691 456.585 144.158V152.231C456.585 153.698 455.396 154.887 453.929 154.887Z" fill="#0762AD"/>
<path d="M443.503 148.49H445.939V152.107H443.503V148.49Z" fill="white"/>
<path d="M447.476 144.873H449.912V152.107H447.476V144.873Z" fill="white"/>
<path d="M451.444 146.719H453.88V152.108H451.444V146.719Z" fill="white"/>
<path d="M385.341 101.409C385.341 108.551 379.552 114.34 372.416 114.34V102.123C372.416 100.099 374.057 98.4521 376.086 98.4521H384.995C385.226 99.4012 385.341 100.392 385.341 101.409Z" fill="#0762AD"/>
<path d="M385.301 99.675C385.301 106.29 379.938 111.653 373.322 111.653C366.707 111.653 361.344 106.29 361.344 99.675C361.344 93.0598 366.707 87.6967 373.322 87.6967C379.938 87.6967 385.301 93.0598 385.301 99.675Z" fill="#AADCF8"/>
<path d="M375.474 98.8241C374.867 98.4885 374.221 98.2331 373.583 97.9678C373.212 97.8142 372.857 97.6354 372.544 97.3863C371.927 96.8939 372.046 96.0953 372.768 95.7792C372.972 95.6895 373.187 95.6612 373.404 95.6481C374.241 95.6035 375.036 95.7566 375.793 96.121C376.17 96.303 376.295 96.2458 376.423 95.8526C376.557 95.4373 376.669 95.0157 376.794 94.5967C376.877 94.3157 376.774 94.1306 376.51 94.0126C376.023 93.7987 375.525 93.645 375.002 93.5617C374.317 93.4563 374.317 93.4531 374.314 92.7662C374.311 91.7983 374.311 91.7983 373.34 91.7983C373.199 91.7983 373.059 91.7951 372.918 91.7983C372.465 91.8109 372.388 91.8911 372.375 92.3478C372.368 92.5523 372.375 92.7568 372.372 92.9644C372.368 93.5716 372.365 93.5617 371.784 93.773C370.378 94.2837 369.509 95.2422 369.416 96.776C369.333 98.134 370.043 99.0511 371.158 99.7186C371.844 100.131 372.605 100.374 373.334 100.696C373.618 100.821 373.889 100.964 374.126 101.163C374.826 101.741 374.698 102.703 373.867 103.067C373.423 103.262 372.953 103.31 372.47 103.249C371.726 103.156 371.014 102.962 370.343 102.613C369.95 102.409 369.835 102.463 369.701 102.888C369.586 103.255 369.483 103.626 369.381 103.997C369.244 104.495 369.295 104.613 369.771 104.846C370.378 105.14 371.027 105.291 371.688 105.396C372.206 105.479 372.221 105.501 372.228 106.038C372.231 106.281 372.231 106.527 372.234 106.77C372.238 107.076 372.384 107.256 372.701 107.262C373.059 107.268 373.42 107.268 373.778 107.258C374.071 107.252 374.221 107.093 374.221 106.795C374.221 106.463 374.238 106.128 374.225 105.795C374.209 105.457 374.356 105.284 374.682 105.194C375.433 104.99 376.072 104.588 376.564 103.987C377.931 102.326 377.41 99.8943 375.474 98.8241Z" fill="white"/>
<path d="M356.63 99.6755C356.63 90.4569 364.104 82.9837 373.323 82.9837C382.541 82.9837 390.015 90.4569 390.015 99.6755C390.015 108.894 382.541 116.367 373.323 116.367C364.104 116.367 356.63 108.894 356.63 99.6755Z" stroke="#0762AD" stroke-width="2.66776" stroke-miterlimit="10"/>
<path d="M472.845 427.266H38.8079C35.504 427.266 32.8256 424.588 32.8256 421.284C32.8256 417.98 35.504 415.302 38.8079 415.302H472.845C476.149 415.302 478.827 417.98 478.827 421.284C478.827 424.588 476.149 427.266 472.845 427.266Z" fill="#F4F4F4"/>
<path d="M208.494 371.294H200.528V418.073H208.494V371.294Z" fill="#5D6166"/>
<path d="M180.702 423.203C180.702 420.37 184 418.073 188.068 418.073H221.158C225.227 418.073 228.525 420.37 228.525 423.203" stroke="#2E3135" stroke-width="26.6776" stroke-miterlimit="10"/>
<path d="M168.853 288.725H195.189L205.076 354.78H177.343C174.311 354.78 171.484 352.321 171.03 349.288L162.996 295.613C162.427 291.808 165.049 288.725 168.853 288.725Z" fill="#2E3135"/>
<path d="M173.904 288.725H202.809C206.518 288.725 209.667 291.438 210.216 295.105L218.256 348.821C218.726 351.959 216.295 354.78 213.123 354.78H182.394C179.361 354.78 176.535 352.321 176.081 349.288L168.047 295.613C167.478 291.808 170.1 288.725 173.904 288.725Z" fill="#3F4347"/>
<path d="M177.284 354.776H226.811C227.391 354.776 227.86 355.246 227.86 355.826V362.583C227.86 363.163 227.391 363.633 226.811 363.633H185.091C180.78 363.633 177.284 360.138 177.284 355.826V354.776Z" fill="#5D6166"/>
<path d="M192.683 371.295H215.103C216.66 371.295 217.922 370.033 217.922 368.476V363.617H189.864V368.476C189.864 370.033 191.126 371.295 192.683 371.295Z" fill="#3F4347"/>
<path d="M175.24 423.203C175.24 426.22 177.686 428.666 180.702 428.666C183.719 428.666 186.165 426.22 186.165 423.203C186.165 420.187 183.719 417.74 180.702 417.74C177.686 417.74 175.24 420.187 175.24 423.203Z" fill="#5D6166"/>
<path d="M177.823 423.203C177.823 424.793 179.112 426.082 180.702 426.082C182.292 426.082 183.581 424.793 183.581 423.203C183.581 421.613 182.292 420.324 180.702 420.324C179.112 420.324 177.823 421.613 177.823 423.203Z" fill="#858789"/>
<path d="M223.218 423.203C223.218 426.22 225.663 428.666 228.68 428.666C231.698 428.666 234.143 426.22 234.143 423.203C234.143 420.187 231.698 417.74 228.68 417.74C225.663 417.74 223.218 420.187 223.218 423.203Z" fill="#5D6166"/>
<path d="M225.802 423.203C225.802 424.793 227.091 426.082 228.681 426.082C230.271 426.082 231.56 424.793 231.56 423.203C231.56 421.614 230.271 420.324 228.681 420.324C227.091 420.324 225.802 421.614 225.802 423.203Z" fill="#858789"/>
<path d="M208.493 371.294H200.528V376.182L208.493 373.563V371.294Z" fill="#2E3135"/>
<path d="M244.747 406.777L255.123 404.621C255.123 404.621 256.458 414.587 257.283 417.15C258.108 419.712 262.281 420.926 268.129 422.273C270.505 422.82 273.172 423.871 274.038 424.659C274.904 425.447 274.151 426.665 272.981 426.673C267.916 426.709 254.199 427.214 249.969 426.671C249.193 426.571 248.611 426.036 248.419 425.125C248.224 424.198 248.712 423.615 248.613 421.713L248.535 420.202L244.747 406.777Z" fill="#FCD2BA"/>
<path d="M256.224 411.982L247.844 417.755L247.02 414.825L256.224 411.982Z" fill="#EDA89F"/>
<path d="M248.152 419.906C248.152 419.906 248.718 421.136 250.415 421.431C252.113 421.727 260.957 423.218 260.957 423.218L260.822 422.943C260.246 421.77 260.268 420.392 260.876 419.236C261.194 418.632 261.499 418.128 261.62 418.159C261.916 418.233 264.687 420.607 265.13 420.792C265.573 420.976 274.066 423.893 274.626 424.39C275.186 424.888 275.579 426.743 275.529 427.884H248.152C248.152 427.884 247.58 425.499 247.266 423.695C247.02 422.28 247.503 420.611 248.152 419.906Z" fill="#C18053"/>
<path d="M248.152 427.884V428.655C248.152 429.101 248.514 429.463 248.96 429.463H253.811L253.812 428.09L257.847 429.463H274.522C275.083 429.463 275.538 429.009 275.538 428.448V427.884H248.152Z" fill="#A05830"/>
<path d="M260.957 423.219C260.957 423.219 270.987 425.457 272.208 425.285C273.427 425.114 274.626 424.39 274.626 424.39" stroke="#A05830" stroke-width="2.66776" stroke-miterlimit="10"/>
<path d="M265.13 420.793C265.13 420.793 262.514 420.921 262.42 423.612" stroke="#A05830" stroke-width="2.66776" stroke-miterlimit="10"/>
<path d="M269.014 291.461L265.443 297.771L258.104 292.855L261.72 287.392C261.72 287.392 265.608 288.675 269.014 291.461Z" fill="#FCD2BA"/>
<path d="M268.258 292.582C268.258 292.582 269.992 289.368 270.534 289.333C271.184 289.291 271.986 289.292 272.996 289.05C275.788 288.382 277.968 285.24 278.659 284.944C279.35 284.648 282.636 281.896 283.032 281.37C283.427 280.844 282.702 280.241 282.702 280.241C282.702 280.241 283.788 279.659 284.062 279.232C284.336 278.804 284.052 278.31 284.052 278.31C284.118 278.014 283.887 277.422 283.196 277.323C282.505 277.224 281.419 277.882 281.419 277.882C281.419 277.882 281.387 277.389 280.498 277.093C279.61 276.797 273.592 278.857 272.342 278.923C271.092 278.989 270.595 278.759 270.595 278.759C270.595 278.759 271.276 278.799 272.355 278.044C274.588 276.483 272.574 275.39 272.574 275.39C272.574 275.39 272.56 275.348 271.828 275.609C270.167 276.205 269.448 276.285 267.503 277.311C266.296 277.947 264.733 280.614 264.294 281.842C264.21 282.081 263.712 284.48 263.538 284.869C262.814 286.486 261.515 288.388 261.515 288.388L268.258 292.582Z" fill="#FCD2BA"/>
<path d="M282.703 280.241C282.703 280.241 282.078 280.12 280.861 280.943C279.643 281.765 275.875 283.103 275.875 283.103" stroke="#EDA89F" stroke-width="2.66776" stroke-miterlimit="10" stroke-linecap="round"/>
<path d="M281.383 277.76C281.383 277.76 276.26 279.736 273.899 280.643" stroke="#EDA89F" stroke-width="2.66776" stroke-miterlimit="10" stroke-linecap="round"/>
<path d="M273.435 280.234C273.435 280.234 275.705 282.085 276.034 283.566" stroke="#EDA89F" stroke-width="2.66776" stroke-miterlimit="10" stroke-linecap="round"/>
<path d="M275.099 281.9C275.099 281.9 279.365 280.008 280.633 279.319C283.131 277.961 284.052 278.311 284.052 278.311" stroke="#EDA89F" stroke-width="2.66776" stroke-miterlimit="10" stroke-linecap="round"/>
<path d="M270.311 279.705C270.311 279.705 269.96 281.468 267.634 282.878" stroke="#EDA89F" stroke-width="2.66776" stroke-miterlimit="10" stroke-linecap="round"/>
<path d="M260.886 288.653L267.728 293.733L268.258 292.803L260.886 288.653Z" fill="#EDA89F"/>
<path d="M262.185 286.667L269.13 290.664C269.37 290.803 269.462 291.105 269.338 291.354L268.711 292.553C268.576 292.825 268.239 292.927 267.976 292.774L260.946 288.695C260.686 288.544 260.605 288.207 260.767 287.955L261.48 286.838C261.632 286.602 261.942 286.527 262.185 286.667Z" fill="#C18053"/>
<path d="M266.743 289.638L265.905 291.089C265.758 291.344 265.431 291.432 265.177 291.284L263.692 290.427C263.437 290.28 263.35 289.954 263.497 289.699L264.335 288.248C264.482 287.992 264.808 287.905 265.063 288.052L266.547 288.909C266.803 289.057 266.89 289.383 266.743 289.638Z" stroke="#F4F4F4" stroke-width="2.66776" stroke-miterlimit="10"/>
<path d="M266.636 290.598L265.386 289.904" stroke="#F4F4F4" stroke-width="2.66776" stroke-miterlimit="10" stroke-linecap="round"/>
<path d="M258.433 290.773L267.513 296.679C267.513 296.679 253.217 320.35 251.937 321.63C250.657 322.909 246.819 322.631 244.555 322.138C242.291 321.646 228.652 295.838 226.458 289.145C224.264 282.453 225.19 279.385 229.393 276.474C233.597 273.564 238.469 275.454 241.028 281.747C243.587 288.039 248.377 302.988 248.377 302.988L258.433 290.773Z" fill="#004770"/>
<path d="M268.048 291.193C268.048 291.347 267.923 291.472 267.768 291.472C267.614 291.472 267.489 291.347 267.489 291.193C267.489 291.039 267.614 290.914 267.768 290.914C267.923 290.914 268.048 291.039 268.048 291.193Z" fill="#A05830"/>
<path d="M262.586 288.131C262.586 288.285 262.461 288.409 262.306 288.409C262.152 288.409 262.027 288.285 262.027 288.131C262.027 287.977 262.152 287.852 262.306 287.852C262.461 287.852 262.586 287.977 262.586 288.131Z" fill="#A05830"/>
<path d="M255.216 294.682L264.572 301.108" stroke="#004F9F" stroke-width="2.66776" stroke-miterlimit="10"/>
<path d="M216.043 404.784C216.043 404.784 212.863 409.842 210.94 411.982C209.016 414.123 220.292 423.221 224.738 423.612C229.184 424.003 223.923 417.985 223.045 415.771C222.167 413.557 223.837 409.428 223.837 409.428L216.043 404.784Z" fill="#FCD2BA"/>
<path d="M257.789 355.626C256.18 359.963 243.737 380.014 234.471 394.685C228.751 403.741 224.247 410.751 224.247 410.751L215.091 404.622L230.943 371.026V371.021L236.952 358.28L216.927 342.848L202.544 331.763L211.007 330.95L230.596 329.062C230.596 329.062 247.565 337.971 255.346 346.188C257.165 348.107 259.431 351.195 257.789 355.626Z" fill="#C2C4C6"/>
<path d="M257.789 355.626C256.18 359.963 243.737 380.014 234.471 394.685L230.942 371.026V371.021L236.952 358.28L216.927 342.848L211.007 330.95L230.596 329.062C230.596 329.062 247.564 337.971 255.346 346.188C257.165 348.107 259.431 351.195 257.789 355.626Z" fill="#9EA0A3"/>
<path d="M210.904 411.776C210.904 411.776 211.004 413.127 212.492 413.997C213.979 414.867 221.742 419.357 221.742 419.357C221.535 417.79 222.301 416.257 223.671 415.469C224.327 415.091 224.896 414.802 224.994 414.868C225.244 415.042 226.151 418.215 226.501 418.543C226.852 418.871 233.788 424.573 234.139 425.235C234.49 425.897 234.209 427.772 233.764 428.824L208.115 419.251C208.115 419.251 208.413 416.816 208.749 415.017C209.014 413.605 210.05 412.209 210.904 411.776Z" fill="#C18053"/>
<path d="M208.115 419.251L207.845 419.973C207.689 420.391 207.902 420.857 208.32 421.013L212.865 422.71L213.346 421.423L216.646 424.121L232.268 429.951C232.793 430.148 233.378 429.881 233.574 429.356L233.772 428.827L208.115 419.251Z" fill="#A05830"/>
<path d="M221.742 419.356C221.742 419.356 230.357 424.961 231.56 425.227C232.763 425.493 234.139 425.234 234.139 425.234" stroke="#A05830" stroke-width="2.66776" stroke-miterlimit="10"/>
<path d="M226.501 418.542C226.501 418.542 224.006 417.748 222.976 420.236" stroke="#A05830" stroke-width="2.66776" stroke-miterlimit="10"/>
<path d="M219.253 334.288L193.925 329.453C193.925 329.453 190.295 335.364 190.295 341.412C190.295 347.46 191.518 352.266 197.29 354.779H225.307L246.218 415.072L257.558 411.569C257.558 411.569 244.948 349.158 240.501 342.888C235.517 335.86 219.253 334.288 219.253 334.288Z" fill="#E1E1E2"/>
<path d="M225.672 271.8C225.672 271.8 234.242 274.195 238.018 276.578C239.697 277.638 233.627 306.201 234.335 318.069C234.483 320.546 235.1 331.762 235.1 331.762C235.1 331.762 235.113 330.655 231.022 331.718C229.245 332.178 227.011 334.456 223.141 335.064C216.453 336.114 203.612 334.59 198.671 333.981C194.168 333.426 190.698 335.861 190.698 335.861L191.929 319.158C191.929 319.158 186.744 280.809 187.925 278.152C189.107 275.495 207.23 271.025 207.23 271.025L225.672 271.8Z" fill="#0C93EF"/>
<path d="M209.864 258.611C209.864 258.611 209.796 267.559 209.107 271.102L219.811 277.543L221.273 271.526C221.273 271.526 222.322 266.554 222.783 265.459C223.182 264.51 209.864 258.611 209.864 258.611Z" fill="#EDA89F"/>
<path d="M209.182 261.7C209.182 261.7 211.943 269.934 216.594 270.741C221.245 271.548 222.184 267.529 222.184 267.529L209.182 261.7Z" fill="#E08780"/>
<path d="M225.558 243.027C225.558 243.027 228.077 245.586 227.748 247.695C227.42 249.805 225.233 251.325 225.233 251.325L223.329 244.886L225.558 243.027Z" fill="#E56700"/>
<path d="M231.783 300.12L227.778 302.217L223.772 300.12V292.239H231.783V300.12Z" stroke="#004770" stroke-width="2.66776" stroke-miterlimit="10"/>
<path d="M224.865 247.106C225.342 248.828 225.649 251.42 225.942 253.951C226.208 256.238 226.318 259.464 226.321 260.845C226.324 262.226 223.5 266.745 221.677 267.889C218.938 269.608 210.747 265.255 210.161 264.415C209.576 263.575 208.711 260.281 208.711 260.281L205.546 250.056C205.546 250.056 208.474 244.814 213.798 243.072C219.025 241.361 223.959 243.829 224.865 247.106Z" fill="#FFD3BB"/>
<path d="M219.608 255.624C219.608 255.624 220.765 257.791 220.766 258.383C220.769 258.974 220.289 259.508 220.289 259.508" stroke="#ECA79E" stroke-width="1.31855" stroke-miterlimit="10" stroke-linecap="round"/>
<path d="M216.841 250.088C216.621 249.622 213.756 249.224 212.25 250.259C210.869 251.208 212.461 250.952 213.738 250.801C214.55 250.705 217.244 250.943 216.841 250.088Z" fill="#E56700"/>
<path d="M220.524 249.705C220.561 249.191 222.59 248.005 224.368 248.426C225.998 248.811 224.422 249.148 223.176 249.468C222.385 249.672 220.458 250.648 220.524 249.705Z" fill="#E56700"/>
<path d="M206.277 252.418L207.783 257.284L205.99 258.393L202.864 251.691L206.277 252.418Z" fill="#E23000"/>
<path d="M214.713 248.659C214.713 248.659 220.878 249.086 224.935 247.371C224.935 247.371 224.946 246.724 224.24 245.537C223.535 244.349 214.713 248.659 214.713 248.659Z" fill="#EDA89F"/>
<path d="M221.829 261.039C221.829 261.039 222.1 263.94 219.331 264.162C216.563 264.383 216.242 261.843 216.242 261.843L221.829 261.039Z" fill="#75044A"/>
<path d="M217.213 263.411C217.213 263.411 217.633 262.536 219.134 262.389C220.635 262.241 221.227 263.036 221.227 263.036C221.227 263.036 221.038 263.985 219.331 264.16C217.624 264.336 217.213 263.411 217.213 263.411Z" fill="#DD1948"/>
<path d="M216.242 261.912L216.535 262.653L221.835 261.703L221.828 261.039L216.242 261.912Z" fill="white"/>
<path d="M221.829 261.039C221.829 261.039 222.108 263.948 219.34 264.17C216.572 264.391 216.242 261.843 216.242 261.843L221.829 261.039Z" stroke="#E08780" stroke-width="1.31855" stroke-miterlimit="10" stroke-linecap="round"/>
<path d="M207.358 255.388L208.227 258.393L209.182 257.889L208.851 254.435C208.851 254.435 209.744 251.437 209.763 251.043C209.783 250.65 208.601 248.337 208.601 248.337C208.601 248.337 217.417 249.662 222.137 247.062C227.213 244.266 227.516 239.385 223.329 234.464C223.329 234.464 221.691 237.121 219.039 237.023C216.387 236.925 210.506 236.266 207.112 238.007C205.968 238.594 204.182 244.266 204.182 244.266C204.182 244.266 201.145 246.908 201.131 248.929C201.117 250.951 205.324 257.566 205.324 257.566L207.358 255.388Z" fill="#FFC200"/>
<path d="M207.358 255.388C207.358 255.388 204.265 256.576 204.903 259.079C205.836 262.731 209.183 261.7 209.183 261.7L207.358 255.388Z" fill="#EDA89F"/>
<path d="M220.728 334.896C220.728 334.896 220.192 298.922 219.809 277.543" stroke="#004770" stroke-width="2.66776" stroke-miterlimit="10" stroke-linecap="round"/>
<path d="M256.391 290.25L254.854 288.653L255.215 290.736L256.391 290.25Z" fill="#3F4347"/>
<path d="M253.765 288.214H234.939C233.95 288.214 233.078 288.861 232.791 289.807L224.096 320.402C223.789 321.416 224.548 322.438 225.606 322.438H244.432C245.421 322.438 246.293 321.791 246.58 320.845L255.275 290.25C255.582 289.236 254.824 288.214 253.765 288.214Z" fill="#3F4347"/>
<path d="M255.406 289.903H236.58C235.591 289.903 234.719 290.55 234.433 291.496L225.671 320.403C225.364 321.417 226.122 322.439 227.181 322.439H246.007C246.996 322.439 247.868 321.792 248.154 320.846L256.916 291.939C257.223 290.926 256.465 289.903 255.406 289.903Z" fill="#5D6166"/>
<path d="M239.532 297.228H235.521C235.239 297.228 235.037 296.957 235.117 296.687L236.322 292.631C236.41 292.337 236.681 292.135 236.988 292.135H240.999C241.281 292.135 241.483 292.406 241.403 292.675L240.198 296.732C240.11 297.026 239.839 297.228 239.532 297.228Z" fill="#3F4347"/>
<path d="M244.424 306.619C244.088 308.033 242.67 309.179 241.257 309.179C239.844 309.179 238.97 308.033 239.305 306.619C239.641 305.206 241.059 304.06 242.472 304.06C243.886 304.06 244.759 305.206 244.424 306.619Z" stroke="#9EA0A3" stroke-width="2.66776" stroke-miterlimit="10"/>
<path d="M225.932 318.61H248.713" stroke="#3F4347" stroke-width="2.66776" stroke-miterlimit="10" stroke-linecap="round"/>
<path d="M207.172 271.025L209.639 267.306L216.482 272.916L211.373 279.043L207.172 271.025Z" fill="#004770"/>
<path d="M228.302 275.673L226.038 270.85L221.99 268.09L221.547 271.613L228.302 275.673Z" fill="#004F9F"/>
<path d="M226.038 270.85L219.753 277.543L221.991 268.089L226.038 270.85Z" fill="#004770"/>
<path d="M216.482 272.916L219.753 277.542L214.987 274.709L216.482 272.916Z" fill="#004F9F"/>
<path d="M215.832 405.115L222.976 412.416L223.534 410.274L215.832 405.115Z" fill="#EDA89F"/>
<path d="M220.728 314.002C220.728 314.002 227.645 310.033 228.957 310.271C230.268 310.509 234.164 311.622 235.117 312.656C236.071 313.689 235.1 314.887 234.483 315.182C234.483 315.182 234.267 322.43 233.5 322.43C232.733 322.43 221.127 322.551 221.127 322.551L220.728 314.002Z" fill="#FCD2BA"/>
<path d="M208.769 314.985L218.243 314.616L220.728 314.002L221.127 322.55H206.702L208.769 314.985Z" fill="#FCD2BA"/>
<path d="M193.023 276.626C188.579 275.136 186.206 280.243 184.927 283.66C183.648 287.077 176.758 323.14 179.116 326C182.585 330.208 208.474 323.843 208.474 323.843L210.905 314.001L194.375 313.509C194.375 313.509 197.327 291.953 198.213 286.933C199.099 281.914 196.789 277.888 193.023 276.626Z" fill="#0C93EF"/>
<path d="M234.483 315.183L230.595 314.297" stroke="#EDA89F" stroke-width="2.66776" stroke-miterlimit="10" stroke-linecap="round"/>
<path d="M234.335 318.07L230.151 317.491" stroke="#EDA89F" stroke-width="2.66776" stroke-miterlimit="10" stroke-linecap="round"/>
<path d="M233.843 320.546L230.151 320.037" stroke="#EDA89F" stroke-width="2.66776" stroke-miterlimit="10" stroke-linecap="round"/>
<path d="M190.216 276.738C190.216 276.738 196.461 277.543 197.871 281.746C199.281 285.95 193.867 312.027 193.867 312.027L210.84 314.002" stroke="#004770" stroke-width="2.66776" stroke-miterlimit="10" stroke-linecap="round"/>
<path d="M197.414 312.44L188.995 311.48" stroke="#004770" stroke-width="2.66776" stroke-miterlimit="10"/>
<path d="M244.25 410.21L256.582 406.626" stroke="#C2C4C6" stroke-width="2.66776" stroke-miterlimit="10"/>
<path d="M217.025 400.527L226.741 407.004" stroke="#9EA0A3" stroke-width="2.66776" stroke-miterlimit="10"/>
<path d="M208.474 323.844C208.474 323.844 194.887 326.784 187.149 327.381" stroke="#004770" stroke-width="2.66776" stroke-miterlimit="10"/>
<path d="M202.292 325.091L204.167 313.226" stroke="#004770" stroke-width="2.66776" stroke-miterlimit="10"/>
<path d="M210.681 314.91L210.905 322.55H208.793L210.681 314.91Z" fill="#EDA89F"/>
<path d="M216.491 255.566C216.522 256.067 216.298 256.487 215.99 256.507C215.682 256.526 215.408 256.136 215.376 255.637C215.344 255.136 215.569 254.716 215.876 254.696C216.185 254.677 216.459 255.066 216.491 255.566Z" fill="#0C93EF"/>
<path d="M224.069 254.263C224.101 254.763 223.877 255.184 223.568 255.203C223.261 255.223 222.986 254.833 222.954 254.333C222.923 253.833 223.147 253.412 223.455 253.392C223.763 253.373 224.038 253.762 224.069 254.263Z" fill="#0C93EF"/>
<path d="M143.014 267.232C143.014 267.232 143.235 271.141 140.725 272.839C140.725 272.839 136.296 272.876 135.816 270.883C135.336 268.889 136.001 264.977 136.001 264.977C136.001 264.977 142.091 265.723 143.014 267.232Z" fill="#A36455"/>
<path d="M132.307 279.618L134.783 271.419C134.783 271.419 135.524 270.423 138.031 270.934C140.49 271.436 140.725 272.839 140.725 272.839L139.76 280.703L132.307 279.618Z" fill="#A36455"/>
<path d="M134.783 271.42C134.783 271.42 133.381 269.333 133.085 267.82C132.79 266.306 133.049 265.04 133.491 263.92C133.934 262.8 138.622 262.837 139.213 263.575C139.803 264.313 139.323 265.236 138.438 265.642C137.551 266.048 135.854 266.048 135.854 266.048C135.854 266.048 137.625 266.75 137.773 267.598C137.921 268.447 137.293 271.42 137.293 271.42H134.783Z" fill="#A36455"/>
<path d="M134.931 263.648C134.931 263.648 136.22 256.237 136.516 255.056C136.813 253.875 137.588 254.06 137.92 254.134C138.252 254.208 138.622 254.946 138.474 255.813C138.326 256.68 137.982 261.668 137.982 261.668C137.982 261.668 144.018 262.511 143.898 264.426C143.784 266.238 143.738 267.627 142.017 267.856C141.464 267.93 137.773 267.598 137.773 267.598C137.773 267.598 133.971 267.745 134.931 263.648Z" fill="#A36455"/>
<path d="M135.008 263.174C135.008 263.174 138.326 263.032 139.028 263.174C139.729 263.317 139.175 265.236 137.515 265.642C135.854 266.047 136.216 266.038 136.216 266.038C136.216 266.038 137.538 266.999 137.551 268.484C137.565 269.969 136.702 271.252 136.702 271.252" stroke="#6D332D" stroke-width="1.31855" stroke-miterlimit="10"/>
<path d="M143.391 266.907C143.391 266.907 143.291 267.562 141.943 267.558C140.571 267.553 137.167 267.133 137.167 267.133" stroke="#6D332D" stroke-width="1.31855" stroke-miterlimit="10" stroke-linecap="round"/>
<path d="M101.779 369.089H94.1323V408.003H101.779V369.089Z" fill="#5D6166"/>
<path d="M72.465 413.132C72.465 410.299 75.7632 408.002 79.8311 408.002H112.921C116.989 408.002 120.288 410.299 120.288 413.132" stroke="#2E3135" stroke-width="26.6776" stroke-miterlimit="10"/>
<path d="M60.6157 286.52H86.9519L96.838 352.575H69.106C66.0737 352.575 63.2469 350.116 62.7928 347.083L54.7592 293.407C54.1898 289.603 56.812 286.52 60.6157 286.52Z" fill="#2E3135"/>
<path d="M65.6662 286.52H97.1935C100.902 286.52 104.051 289.233 104.6 292.9L112.64 346.616C113.11 349.753 110.68 352.575 107.507 352.575H74.1566C71.1242 352.575 68.2974 350.116 67.8434 347.083L59.8097 293.407C59.2403 289.603 61.8626 286.52 65.6662 286.52Z" fill="#3F4347"/>
<path d="M69.0468 352.57H120.147C120.726 352.57 121.196 353.04 121.196 353.62V360.378C121.196 360.957 120.726 361.428 120.147 361.428H76.8538C72.5421 361.428 69.0468 357.932 69.0468 353.62V352.57Z" fill="#5D6166"/>
<path d="M85.4847 369.088H110.428C111.984 369.088 113.247 367.827 113.247 366.269V361.411H82.6658V366.269C82.6658 367.827 83.9279 369.088 85.4847 369.088Z" fill="#3F4347"/>
<path d="M67.0023 413.133C67.0023 416.149 69.4479 418.595 72.465 418.595C75.4816 418.595 77.9272 416.149 77.9272 413.133C77.9272 410.116 75.4816 407.67 72.465 407.67C69.4479 407.67 67.0023 410.116 67.0023 413.133Z" fill="#5D6166"/>
<path d="M69.5858 413.132C69.5858 414.722 70.8747 416.011 72.465 416.011C74.0549 416.011 75.3437 414.722 75.3437 413.132C75.3437 411.542 74.0549 410.253 72.465 410.253C70.8747 410.253 69.5858 411.542 69.5858 413.132Z" fill="#858789"/>
<path d="M114.981 413.133C114.981 416.149 117.427 418.595 120.443 418.595C123.46 418.595 125.906 416.149 125.906 413.133C125.906 410.116 123.46 407.67 120.443 407.67C117.427 407.67 114.981 410.116 114.981 413.133Z" fill="#5D6166"/>
<path d="M117.565 413.132C117.565 414.722 118.853 416.011 120.443 416.011C122.033 416.011 123.323 414.722 123.323 413.132C123.323 411.542 122.033 410.253 120.443 410.253C118.853 410.253 117.565 411.542 117.565 413.132Z" fill="#858789"/>
<path d="M101.78 369.089H94.1324V373.977L101.78 371.358V369.089Z" fill="#2E3135"/>
<path d="M116.846 307.675C116.846 307.675 118.004 308.511 118.523 309.196C118.992 309.818 118.871 310.773 117.985 310.971C117.1 311.171 115.573 310.337 114.833 309.847C114.094 309.356 113.551 308.521 113.551 308.521L116.846 307.675Z" fill="#6D332D"/>
<path d="M111.752 276.198C114.748 274.977 114.469 274.562 115.866 276.235C117.264 277.907 126.319 294.877 126.319 294.877L131.732 278.989L140.49 280.287C140.49 280.287 134.192 313.508 132.421 314.958C130.649 316.408 126.533 317.417 124.457 314.958C122.381 312.499 109.251 292.422 107.234 288.723C105.218 285.022 108.65 277.463 111.752 276.198Z" fill="#EF9F00"/>
<path d="M110.798 325.133C110.798 325.133 138.123 331.817 140.854 333.219C143.585 334.622 145.726 337.057 146.907 340.084C148.088 343.111 164.097 407.01 164.097 407.01L155.49 410.842L132.446 354.94C132.446 354.94 93.2232 348.126 86.1365 340.449C79.0504 332.772 87.0227 314.982 87.0227 314.982L108.11 317.838L110.798 325.133Z" fill="#003C77"/>
<path d="M77.966 313.767C77.966 313.767 75.1665 323.594 73.1981 328.81C71.2296 334.027 69.7798 348.539 82.0103 352.575H120.344L106.519 409.035H115.781C115.781 409.035 136.788 358.958 137.965 349.775C138.242 347.61 140.49 340.543 131.272 336.783C121.541 332.813 101.221 326.973 101.221 326.973L102.303 317L77.966 313.767Z" fill="#004770"/>
<path d="M76.6368 318.299C76.6368 318.299 78.278 320.048 86.3661 321.91C94.4543 323.772 101.671 322.819 101.671 322.819L102.303 316.999L78.3624 312.562L76.6368 318.299Z" fill="#004F9F"/>
<path d="M88.1301 317.043C88.1301 317.043 83.4371 328.151 82.5956 334.026C82.003 338.16 84.2934 340.616 86.5555 341.31C98.7236 345.043 122.128 348.773 124.443 349.479C128.152 350.611 128.761 353.366 127.776 357.008C123.561 372.598 110.603 410.55 110.603 410.55" stroke="#004F9F" stroke-width="2.66776" stroke-miterlimit="10"/>
<path d="M92.5729 268.951C92.5729 268.951 79.4499 272.142 76.5487 274.214C73.6485 276.285 78.9387 283.293 80.8274 291.788C82.7161 300.283 77.966 313.767 77.966 313.767C77.966 313.767 82.4209 317.704 93.7123 317.807C105.004 317.911 108.602 317.728 108.602 317.728C108.602 317.728 109.135 309.813 110.688 305.98C112.24 302.147 114.697 298.225 115.509 293.575C116.072 290.347 115.245 287.891 114.727 282.982C114.258 278.534 116.47 278.221 115.866 276.236C115.258 274.235 105.693 271.616 105.693 271.616L92.5729 268.951Z" fill="#FFC200"/>
<path d="M90.7089 269.421C90.7089 269.421 92.8813 273.94 95.986 275.698C99.2249 277.531 104.242 277.629 106.075 275.369C107.566 273.53 106.973 272.019 106.973 272.019" stroke="#E56700" stroke-width="2.66776" stroke-miterlimit="10" stroke-linecap="round"/>
<path d="M94.8471 259.319C94.8471 259.319 94.9037 266.153 92.5729 268.951C92.5729 268.951 94.8339 275.688 102.166 275.244C106.017 275.011 105.728 272.447 105.728 272.447C105.728 272.447 105.501 270.789 106.322 265.868L94.8471 259.319Z" fill="#8E5042"/>
<path d="M94.576 259.431L94.7381 262.526C96.1479 265.867 99.4809 271.029 103.707 270.35C105.882 270 106.322 265.868 106.322 265.868L94.576 259.431Z" fill="#6D332D"/>
<path d="M146.25 312.562H107.965C107.094 312.562 106.388 313.268 106.388 314.139V315.792H146.25V312.562Z" fill="#A80E3A"/>
<path d="M153.08 279.746H151.288C150.951 279.746 150.66 279.982 150.589 280.311L142.995 315.792H146.25L153.779 280.612C153.875 280.167 153.535 279.746 153.08 279.746Z" fill="#DD1948"/>
<path d="M97.7362 233.494C97.7362 233.494 97.0614 228.307 92.5378 228.865C89.0487 229.296 89.1531 232.162 89.1531 232.162C89.1531 232.162 85.4585 228.832 81.7623 232.337C78.8538 235.096 81.7959 238.66 81.7959 238.66C81.7959 238.66 77.7369 238.808 77.3038 242.531C76.8387 246.527 80.8998 247.626 80.8998 247.626C80.8998 247.626 78.6194 249.692 80.7551 252.812C82.8902 255.933 85.8843 254.281 85.8843 254.281C85.8843 254.281 99.3628 239.71 97.7362 233.494Z" fill="#2E3135"/>
<path d="M107.482 242.939C107.482 242.939 108.761 243.012 109.072 244.943C109.254 246.074 108.154 247.156 108.154 247.156C108.154 247.156 107.013 245.075 107.482 242.939Z" fill="#2E3135"/>
<path d="M90.8205 250.29C90.1457 246.45 93.6001 242.424 100.097 241.206C105.112 240.267 107.404 242.738 107.615 243.995C107.615 243.995 108.377 249.132 108.737 250.253C109.096 251.376 109.989 255.342 109.892 257.925C109.796 260.508 107.777 264.794 107.09 265.398C106.402 266.002 104.169 266.816 102.326 266.604C100.482 266.392 96.1023 264.03 95.6 263.371C94.8627 262.404 91.5064 254.192 90.8205 250.29Z" fill="#A36455"/>
<path d="M99.5678 249.674C99.4137 249.232 97.3519 248.674 95.8921 249.467C94.5545 250.192 95.3248 251.241 96.4935 251.226C97.2365 251.216 99.851 250.485 99.5678 249.674Z" fill="#2E3135"/>
<path d="M104.193 248.678C104.082 248.224 105.508 246.633 107.164 246.504C108.681 246.385 108.606 247.684 107.617 248.307C106.988 248.703 104.397 249.512 104.193 248.678Z" fill="#2E3135"/>
<path d="M104.856 255.02C104.856 255.02 105.635 257.25 105.507 257.864C105.372 258.506 104.534 258.602 104.534 258.602" stroke="#6D332D" stroke-width="2.66776" stroke-miterlimit="10" stroke-linecap="round"/>
<path d="M100.434 260.546L106.2 259.985C106.2 259.985 106.216 262.963 103.207 263.146C100.368 263.319 100.434 260.546 100.434 260.546Z" fill="#75044A"/>
<path d="M101.078 262.393C101.078 262.393 101.951 261.565 103.557 261.478C105.163 261.392 105.502 262.033 105.502 262.033C105.502 262.033 104.826 263.207 103.122 263.223C101.526 263.238 101.078 262.393 101.078 262.393Z" fill="#DD1948"/>
<path d="M100.434 260.545L100.49 261.117L106.109 260.695L106.201 259.985L100.434 260.545Z" fill="white"/>
<path d="M100.434 260.546L106.2 259.985C106.2 259.985 106.216 262.963 103.207 263.146C100.368 263.319 100.434 260.546 100.434 260.546Z" stroke="#6D332D" stroke-width="1.31855" stroke-miterlimit="10"/>
<path d="M91.9526 255.327C91.9526 255.327 92.9185 254.649 92.435 253.337C91.9516 252.026 91.2919 251.213 91.2919 251.213C91.2919 251.213 92.4287 250.701 92.4591 248.928C92.4896 247.155 92.2295 247.924 92.2295 247.924C92.2295 247.924 94.0065 247.77 94.922 246.758C95.837 245.746 96.2523 243.954 96.2523 243.954C96.2523 243.954 97.8537 244.735 100.391 243.994C102.928 243.254 103.613 241.835 103.613 241.835C103.613 241.835 106.354 244.397 107.616 243.994C108.877 243.591 108.252 241.426 108.12 240.623C107.988 239.817 106.84 235.552 100.453 234.901C94.0658 234.251 87.4594 237.241 85.2991 242.689C83.1382 248.137 84.0239 255.673 91.9411 260.808L94.7799 263.412C94.7799 263.412 95.1527 263.167 95.0038 262.266C94.856 261.364 94.3363 260.772 94.3363 260.772L91.9526 255.327Z" fill="#2E3135"/>
<path d="M92.0916 260.946C92.0916 260.946 83.7271 251.826 90.0455 242.262C94.2933 235.832 99.7565 235.35 103.283 235.515C103.283 235.515 99.3213 233.321 94.2005 234.902C88.1353 236.775 84.4465 242.035 84.3605 249.434C84.3379 251.398 85.3043 254.854 87.6781 257.554C89.5511 259.684 92.0916 260.946 92.0916 260.946Z" fill="#DD1948"/>
<path d="M94.3368 260.775C94.3368 260.775 93.2986 260.788 92.3113 260.339C92.1429 260.265 91.9704 260.173 91.8084 260.063C91.2505 259.696 90.8137 259.127 90.6192 258.282C90.12 256.109 92.2074 255.074 92.2074 255.074L94.0238 259.962C93.8765 259.893 93.7212 259.835 93.5613 259.799L93.4481 260.265C93.748 260.338 94.0411 260.486 94.3028 260.69C94.3028 260.69 94.3075 260.689 94.3085 260.694L94.3368 260.775Z" fill="#A36455"/>
<path d="M94.3033 260.69C94.0413 260.486 93.7482 260.338 93.4484 260.265L93.5616 259.798C93.7216 259.836 93.8769 259.893 94.0243 259.962L94.3033 260.69Z" fill="#9B604E"/>
<path d="M98.241 255.521C97.8063 253.619 98.6807 251.797 100.194 251.451C101.708 251.105 103.287 252.366 103.722 254.267C104.156 256.169 103.282 257.991 101.769 258.337C100.255 258.683 98.6758 257.422 98.241 255.521Z" stroke="#E1E1E2" stroke-width="2.66776" stroke-miterlimit="10"/>
<path d="M105.512 253.858C105.077 251.957 105.792 250.171 107.109 249.87C108.426 249.569 109.846 250.866 110.28 252.768C110.715 254.67 110 256.455 108.684 256.756C107.367 257.057 105.947 255.76 105.512 253.858Z" stroke="#E1E1E2" stroke-width="2.66776" stroke-miterlimit="10"/>
<path d="M105.521 253.866L103.724 254.277" stroke="#E1E1E2" stroke-width="2.66776" stroke-miterlimit="10"/>
<path d="M96.0116 262.606C96.4458 264.506 95.5675 266.33 94.0579 266.675C92.5488 267.019 90.9647 265.759 90.5306 263.859C90.1677 262.27 90.7078 260.719 91.8084 260.062C91.9705 260.172 92.143 260.264 92.3113 260.338C91.2159 260.784 90.6491 262.239 90.9952 263.753C91.3711 265.397 92.6977 266.496 93.952 266.209C95.2057 265.923 95.923 264.356 95.5471 262.712C95.3552 261.871 94.8948 261.141 94.3085 260.693C94.3075 260.689 94.3028 260.69 94.3028 260.69C94.0411 260.486 93.7485 260.337 93.4481 260.264L93.5613 259.799C93.7213 259.835 93.8765 259.893 94.0238 259.962C94.9781 260.393 95.7322 261.384 96.0116 262.606Z" fill="#FFC200"/>
<path d="M101.836 254.054C102.002 254.527 101.852 255.01 101.5 255.133C101.148 255.256 100.729 254.973 100.564 254.5C100.397 254.027 100.548 253.544 100.9 253.42C101.251 253.297 101.67 253.58 101.836 254.054Z" fill="#2E3135"/>
<path d="M108.709 252.337C108.875 252.81 108.725 253.293 108.373 253.416C108.021 253.54 107.603 253.257 107.437 252.784C107.27 252.311 107.421 251.827 107.773 251.704C108.124 251.581 108.544 251.864 108.709 252.337Z" fill="#2E3135"/>
<path d="M78.9513 273.34C75.6306 273.743 74.0554 276.154 73.8588 282.945C73.6616 289.736 76.3148 309.815 76.7212 312.079C77.1276 314.342 78.4715 315.418 81.2616 315.418C84.0517 315.418 106.361 311.683 106.361 311.683V304.025L87.8559 303.713C87.8559 303.713 85.8665 289.441 84.7837 282.748C83.7014 276.056 82.154 272.952 78.9513 273.34Z" fill="#FFC200"/>
<path d="M106.388 304.795L113.179 303.851C113.179 303.851 114.114 305.484 114.114 307.158C114.114 308.83 112.674 309.815 112.674 309.815L106.361 311.242L106.388 304.795Z" fill="#A36455"/>
<path d="M106.361 311.683C106.361 311.683 84.9469 315.999 80.8174 315.417" stroke="#E56700" stroke-width="2.66776" stroke-miterlimit="10"/>
<path d="M85.3221 286.198L87.8558 303.712L106.361 304.025" stroke="#E56700" stroke-width="2.66776" stroke-miterlimit="10"/>
<path d="M117.768 308.37C117.768 308.37 121.57 309.083 122.345 309.379C123.12 309.674 124.441 311.106 125.105 311.622C125.77 312.139 126.737 312.561 127.771 312.561C128.804 312.561 127.512 310.773 127.512 310.773C127.512 310.773 127.401 307.175 126.737 306.547C126.073 305.92 120.612 304.11 120.612 304.11L118.469 307.312L117.768 308.37Z" fill="#6D332D"/>
<path d="M112.675 309.814C111.153 309.799 112.931 304.949 113.179 303.85C113.179 303.85 118.101 303.917 119.34 303.784C120.898 303.618 125.729 306.936 126.319 307.6C126.91 308.264 127.937 309.722 128.435 311.347C128.576 311.806 129.01 312.561 127.755 312.561C126.501 312.561 124.437 309.172 124.031 308.802C123.625 308.434 120.481 307.607 119.709 307.586C118.884 307.563 117.337 309.864 112.675 309.814Z" fill="#A36455"/>
<path d="M126.319 294.877L124.891 300.834" stroke="#E56700" stroke-width="2.66776" stroke-miterlimit="10"/>
<path d="M113.997 407.053L114.352 405.891C114.997 403.78 117.55 402.96 119.305 404.301L117.704 409.426L113.997 407.053Z" fill="#E58903"/>
<path d="M106.259 407.061C106.259 407.061 106.205 410.785 105.931 413.031C105.657 415.275 105.164 419.657 105.219 421.08H137.638C137.638 421.08 138.43 418.432 135.556 417.186C133.639 416.355 130.054 416.627 124.536 413.925C119.019 411.223 118.471 407.171 117.431 407.061C116.39 406.952 106.259 407.061 106.259 407.061Z" fill="#FFC200"/>
<path d="M116.763 411L119.133 409.27" stroke="#F4F4F4" stroke-width="5.33552" stroke-miterlimit="10" stroke-linecap="round"/>
<path d="M118.519 413.168L120.636 411.142" stroke="#F4F4F4" stroke-width="5.33552" stroke-miterlimit="10" stroke-linecap="round"/>
<path d="M120.72 414.846L122.454 412.697" stroke="#F4F4F4" stroke-width="5.33552" stroke-miterlimit="10" stroke-linecap="round"/>
<path d="M113.159 413.168C113.159 414.559 112.031 415.687 110.64 415.687C109.249 415.687 108.121 414.559 108.121 413.168C108.121 411.777 109.249 410.649 110.64 410.649C112.031 410.649 113.159 411.777 113.159 413.168Z" fill="#E58903"/>
<path d="M132.181 416.41V420.834H137.638C137.638 420.834 138.582 419.274 137.145 417.631C135.708 415.988 132.181 416.41 132.181 416.41Z" fill="#E1E1E2"/>
<path d="M137.269 420.834H105.207C104.834 420.834 104.533 421.135 104.533 421.508V422.789C104.533 423.161 104.834 423.463 105.207 423.463H137.269C137.641 423.463 137.943 423.161 137.943 422.789V421.508C137.943 421.135 137.641 420.834 137.269 420.834Z" fill="#C2C4C6"/>
<path d="M160.544 405.018L160.553 403.804C160.572 401.596 162.786 400.083 164.85 400.87L164.773 406.239L160.544 405.018Z" fill="#E56700"/>
<path d="M153.118 407.253C153.118 407.253 154.125 410.839 154.501 413.069C154.877 415.3 155.65 419.64 156.108 420.989L176.216 415.024L187.188 411.768C187.188 411.768 187.194 409.004 184.085 408.627C182.011 408.376 178.651 409.656 172.592 408.635C166.534 407.614 164.857 403.885 163.828 404.076C162.799 404.267 153.118 407.253 153.118 407.253Z" fill="#EF9F00"/>
<path d="M164.308 408.042L166.087 405.709" stroke="#F4F4F4" stroke-width="5.33552" stroke-miterlimit="10" stroke-linecap="round"/>
<path d="M166.609 409.62L168.062 407.075" stroke="#F4F4F4" stroke-width="5.33552" stroke-miterlimit="10" stroke-linecap="round"/>
<path d="M169.195 410.603L170.247 408.049" stroke="#F4F4F4" stroke-width="5.33552" stroke-miterlimit="10" stroke-linecap="round"/>
<path d="M161.47 411.145C161.865 412.478 161.105 413.88 159.771 414.276C158.437 414.672 157.035 413.911 156.64 412.578C156.244 411.244 157.004 409.842 158.338 409.446C159.672 409.051 161.074 409.811 161.47 411.145Z" fill="#E56700"/>
<path d="M180.628 408.843L181.886 413.084L187.118 411.532C187.118 411.532 187.58 409.767 185.734 408.601C183.889 407.435 180.628 408.843 180.628 408.843Z" fill="#E1E1E2"/>
<path d="M186.764 411.637L156.026 420.757C155.669 420.863 155.466 421.238 155.572 421.594L155.936 422.823C156.042 423.179 156.417 423.383 156.774 423.277L187.512 414.158C187.868 414.051 188.072 413.677 187.966 413.32L187.601 412.091C187.496 411.735 187.121 411.532 186.764 411.637Z" fill="#C2C4C6"/>
<path d="M132.464 279.098L140.038 278.442L139.823 280.188L132.464 279.098Z" fill="#8E5042"/>
<path d="M106.388 304.795L106.361 311.241L108.628 310.729L106.388 304.795Z" fill="#8E5042"/>
<path d="M60.6445 221.272H72.5993C74.337 221.272 75.7454 222.681 75.7454 224.419V232.743C75.7454 234.48 74.337 235.889 72.5993 235.889V238.199C72.5993 239.615 70.8741 240.311 69.8925 239.289L66.6222 235.889H60.6445C58.9073 235.889 57.4984 234.48 57.4984 232.743V224.419C57.4984 222.681 58.9073 221.272 60.6445 221.272Z" fill="#FFC200"/>
<path d="M66.5472 224.519C66.3621 224.519 66.2122 224.369 66.2122 224.184V223.311C66.2122 223.126 66.3621 222.976 66.5472 222.976C66.7323 222.976 66.8818 223.126 66.8818 223.311V224.184C66.8818 224.369 66.7323 224.519 66.5472 224.519Z" fill="white"/>
<path d="M69.4799 225.734C69.3944 225.734 69.3085 225.702 69.2434 225.636C69.1129 225.505 69.1129 225.293 69.2434 225.162L69.8611 224.544C69.9922 224.414 70.204 224.414 70.3346 224.544C70.4652 224.676 70.4652 224.887 70.3346 225.018L69.7169 225.636C69.6514 225.701 69.5659 225.734 69.4799 225.734Z" fill="white"/>
<path d="M71.5684 228.667H70.6948C70.5103 228.667 70.3603 228.517 70.3603 228.332C70.3603 228.147 70.5103 227.997 70.6948 227.997H71.5684C71.7535 227.997 71.9029 228.147 71.9029 228.332C71.9029 228.517 71.7535 228.667 71.5684 228.667Z" fill="white"/>
<path d="M62.3996 228.667H61.526C61.3414 228.667 61.1915 228.517 61.1915 228.332C61.1915 228.147 61.3414 227.997 61.526 227.997H62.3996C62.5847 227.997 62.7346 228.147 62.7346 228.332C62.7346 228.517 62.5847 228.667 62.3996 228.667Z" fill="white"/>
<path d="M63.6145 225.734C63.5285 225.734 63.443 225.702 63.378 225.636L62.7603 225.018C62.6298 224.887 62.6298 224.676 62.7603 224.544C62.8909 224.414 63.1027 224.414 63.2338 224.544L63.8515 225.162C63.9826 225.293 63.9826 225.505 63.8515 225.636C63.7854 225.701 63.7005 225.734 63.6145 225.734Z" fill="white"/>
<path d="M67.8859 232.349V232.907C67.8859 233.335 67.5335 233.688 67.1051 233.688H65.9893C65.6144 233.688 65.208 233.402 65.208 232.777V232.349H67.8859Z" fill="white"/>
<path d="M68.5151 225.904C67.7831 225.31 66.8193 225.078 65.8776 225.279C64.6946 225.524 63.7351 226.488 63.4897 227.671C63.2396 228.885 63.6952 230.09 64.6679 230.826C64.9311 231.023 65.1141 231.327 65.1765 231.679V231.683C65.1854 231.679 65.1991 231.679 65.208 231.679H67.8859C67.8948 231.679 67.8995 231.679 67.9084 231.683V231.679C67.9708 231.34 68.1716 231.027 68.4794 230.787C69.234 230.188 69.6713 229.296 69.6713 228.332C69.6713 227.386 69.2518 226.502 68.5151 225.904Z" fill="white"/>
<path d="M65.1771 231.68H65.2082C65.1989 231.68 65.1859 231.68 65.1771 231.684V231.68Z" fill="white"/>
<path d="M67.9091 231.68V231.684C67.8999 231.68 67.895 231.68 67.8859 231.68H67.9091Z" fill="white"/>
<path d="M86.9 423.633H93.6867L116.66 332.593H109.873L86.9 423.633Z" fill="#9EA0A3"/>
<path d="M109.001 336.048H115.788L116.66 332.593H109.873L109.001 336.048Z" fill="#5D6166"/>
<path d="M320.251 250.161C316.43 245.962 311.019 252.692 308.588 255.513C306.58 257.841 297.68 267.915 297.68 267.915L284.628 256.236L278.058 263.982C278.058 263.982 293.711 282.11 297.846 283.695C303.814 285.985 312.225 270.639 318.119 265.148C324.012 259.656 322.638 252.785 320.251 250.161Z" fill="#DD1948"/>
<path d="M350.436 299.425C352.526 308.802 354.61 308.894 351.414 353.889C351.163 357.423 352.983 370.812 352.49 386.371C352.11 398.331 350.892 402.645 350.892 402.645H341.189C341.189 402.645 336.451 361.41 335.576 353.243C334.701 345.077 332.89 315.633 332.89 315.633H331.222C331.222 315.633 329.758 321.355 325.248 352.435C325.248 352.435 326.708 371.404 321.204 401.162H310.574C310.574 401.162 308.203 358.603 308.152 351.892C308.102 345.18 311.449 306.664 312.422 299.877C313.393 293.091 317.003 289.405 317.003 289.405L345.779 288.729C345.779 288.729 349.305 294.351 350.436 299.425Z" fill="#5D6166"/>
<path d="M311.373 401.162C311.373 401.162 311.667 406.999 310.688 407.967C309.292 409.348 300.439 412.615 297.677 413.613C296.27 414.121 295.332 414.91 294.947 415.917C294.619 416.773 295.316 417.727 296.248 417.727H320.473C320.473 417.727 321.333 417.394 321.435 415.852C321.522 414.551 320.268 410.8 320.268 410.8C320.043 409.953 320.591 401.162 320.591 401.162H311.373Z" fill="#FCD2BA"/>
<path d="M311.373 401.162L320.459 403.423L320.592 401.162H311.373Z" fill="#EDA89F"/>
<path d="M320.936 413.028C320.936 413.028 320.787 414.23 318.972 414.23H303.909C303.909 414.23 300.673 413.47 302.615 411.807C302.615 411.807 299.094 412.358 296.776 413.75C295.39 414.582 294.173 414.884 294.319 417.727L294.35 418.332H321.474C321.474 418.332 322.35 414.855 320.936 413.028Z" fill="#5D6166"/>
<path d="M294.35 418.332L294.423 419.738H314.007L316.865 418.332L316.938 419.738H320.675C321.157 419.738 321.527 419.348 321.502 418.867L321.474 418.332H294.35Z" fill="#2E3135"/>
<path d="M310.271 407.801C310.271 407.801 309.697 411.807 315.491 415.069" stroke="#5D6166" stroke-width="2.66776" stroke-miterlimit="10" stroke-linecap="round"/>
<path d="M341.603 402.735C341.603 402.735 341.898 408.572 340.918 409.54C339.522 410.921 330.668 414.188 327.907 415.187C326.5 415.695 325.562 416.483 325.177 417.49C324.849 418.346 325.546 419.3 326.479 419.3H350.703C350.703 419.3 351.563 418.967 351.666 417.425C351.752 416.124 350.498 412.373 350.498 412.373C350.274 411.527 350.821 402.735 350.821 402.735H341.603Z" fill="#FCD2BA"/>
<path d="M341.603 402.735L350.689 404.996L350.822 402.735H341.603Z" fill="#EDA89F"/>
<path d="M351.167 414.602C351.167 414.602 351.018 415.803 349.203 415.803H334.139C334.139 415.803 330.904 415.044 332.845 413.38C332.845 413.38 329.325 413.932 327.006 415.323C325.621 416.155 324.403 416.457 324.549 419.3L324.581 419.905H351.705C351.705 419.905 352.581 416.428 351.167 414.602Z" fill="#5D6166"/>
<path d="M324.58 419.905L324.653 421.312H344.237L347.096 419.905L347.168 421.312H350.905C351.387 421.312 351.757 420.921 351.732 420.44L351.705 419.905H324.58Z" fill="#2E3135"/>
<path d="M340.502 409.374C340.502 409.374 339.928 413.38 345.722 416.643" stroke="#5D6166" stroke-width="2.66776" stroke-miterlimit="10" stroke-linecap="round"/>
<path d="M343.883 257.331C340.6 258.974 335.786 260.184 330.673 259.431C330.41 259.394 330.147 259.352 329.884 259.305C324.477 258.3 318.197 258.351 317.184 249.663C316.167 240.974 323.408 236.526 324.033 232.556C324.198 231.499 324.13 230.495 323.996 229.534C323.62 226.883 322.719 224.53 324.731 222.126C328.66 217.43 332.67 217.644 332.67 217.644C332.67 217.644 336.171 215.055 340.369 218.171C344.877 221.516 346.274 226.099 345.665 230.943C345.111 235.338 345.095 238.252 345.174 239.823C345.248 241.394 345.65 243.053 346.974 246.521C348.297 249.989 347.33 255.597 343.883 257.331Z" fill="#C18053"/>
<path d="M330.673 259.431C330.409 259.393 330.147 259.352 329.884 259.304C324.477 258.3 318.197 258.351 317.184 249.663C316.167 240.973 323.408 236.525 324.033 232.556C324.197 231.498 324.13 230.494 323.996 229.534C329.769 230.368 337.445 233.584 340.159 238.589C340.159 238.589 338.715 240.383 340.004 243.443C341.463 246.908 344.467 246.603 343.314 251.831C342.794 254.187 336.815 255.929 330.673 259.431Z" fill="#A05830"/>
<path d="M327.074 240.172C327.074 240.172 327.825 243.148 326.781 245.316C325.738 247.484 324.44 248.184 324.44 248.184C324.44 248.184 326.69 252.346 332.368 252.232C338.046 252.119 339.857 247.85 339.857 247.85C339.857 247.85 338.228 247.515 337.525 245.394C336.822 243.272 337.283 239.393 337.283 239.393L327.074 240.172Z" fill="#EDA89F"/>
<path d="M316.375 250.733C316.375 250.733 316.955 255.115 317.086 260.347C317.251 266.946 313.85 288.821 313.828 288.418C313.828 288.418 317.841 291.057 329.037 291.693C340.233 292.329 348.432 287.76 348.432 287.76C348.432 287.76 349.089 270.593 350.442 262.602C351.644 255.506 352.656 252.21 352.656 252.21L338.587 247.117L332.114 251.894L325.691 247.045L316.375 250.733Z" fill="#F4F4F4"/>
<path d="M327.331 242.787C327.331 242.787 326.868 247.046 330.681 247.045C334.493 247.044 337.138 242.446 337.138 242.446L327.331 242.787Z" fill="#E08780"/>
<path d="M362.501 203.723H350.76C349.053 203.723 347.67 205.106 347.67 206.813V214.988C347.67 216.695 349.053 218.078 350.76 218.078V220.348C350.76 221.738 352.454 222.421 353.419 221.419L356.631 218.078H362.501C364.208 218.078 365.592 216.695 365.592 214.988V206.813C365.592 205.106 364.208 203.723 362.501 203.723Z" fill="#28CE8A"/>
<path d="M355.759 214.323C355.431 214.323 355.103 214.201 354.849 213.955L352.694 211.877C352.173 211.374 352.158 210.544 352.66 210.023C353.164 209.502 353.993 209.488 354.514 209.99L355.736 211.169L358.656 208.212C359.165 207.696 359.995 207.69 360.511 208.2C361.025 208.708 361.031 209.538 360.522 210.054L356.692 213.933C356.435 214.192 356.098 214.323 355.759 214.323Z" fill="white"/>
<path d="M323.89 228.92C323.89 228.92 324.53 236.521 324.872 238.481C325.213 240.44 327.717 245.207 330.904 245.601C334.092 245.996 338.147 242.281 339.373 240.366C340.599 238.45 341.567 232.816 341.83 230.691C342.093 228.566 341.292 220.556 334.118 219.669C326.943 218.78 324.422 224.625 323.89 228.92Z" fill="#FFD3BB"/>
<path d="M331.397 234.032C331.397 234.032 330.911 235.714 330.36 236.871C330.033 237.556 331.235 238.147 331.235 238.147" stroke="#ECA79E" stroke-width="1.31855" stroke-miterlimit="10" stroke-linecap="round"/>
<path d="M325.82 230.183C325.722 230.086 325.74 229.676 326.028 229.43C326.437 229.08 327.284 228.832 328.556 229.075C329.459 229.247 330.674 230.214 330.381 230.492C330.175 230.688 329.891 229.914 328.497 229.741C327.102 229.569 325.919 230.279 325.82 230.183Z" fill="#7F3B18"/>
<path d="M330.112 239.299L335.005 239.546C335.005 239.546 335.462 242.579 332.495 242.497C329.533 242.414 330.112 239.299 330.112 239.299Z" fill="#75044A"/>
<path d="M330.598 241.677C330.598 241.677 330.965 240.866 332.424 240.828C333.883 240.789 334.59 241.603 334.59 241.603C334.59 241.603 333.917 242.692 332.496 242.496C331.074 242.301 330.598 241.677 330.598 241.677Z" fill="#DD1948"/>
<path d="M330.112 239.299L330.072 240.103L335.016 240.303L335.005 239.545L330.112 239.299Z" fill="white"/>
<path d="M330.112 239.299L335.005 239.546C335.005 239.546 335.462 242.579 332.495 242.497C329.533 242.414 330.112 239.299 330.112 239.299Z" stroke="#E08780" stroke-width="1.31855" stroke-miterlimit="10" stroke-linecap="round"/>
<path d="M322.973 247.596C322.973 247.596 321.655 251.962 321.208 257.36C320.209 269.406 321.502 290.539 321.457 300.704C321.412 310.868 321.139 318.371 321.139 318.371C321.139 318.371 310.188 318.044 309.645 312.038C309.101 306.032 313.328 293.8 313.828 288.419C314.079 285.723 315.974 249.91 315.974 249.088C320.016 247.949 320.118 248.168 322.973 247.596Z" fill="#DD1948"/>
<path d="M335.297 229.193C335.297 229.193 338.581 230.443 340.154 232.02C341.308 233.176 341.232 234.426 341.232 234.426L341.955 231.228C341.955 231.228 339.901 228.511 335.297 229.193Z" fill="#EDA89F"/>
<path d="M324.202 232.423C324.202 232.423 323.764 229.503 325.503 226.602C327.196 223.78 330.082 223.35 330.082 223.35L332.671 217.646C332.671 217.646 326.485 216.523 323.363 221.012C317.95 228.794 324.202 232.423 324.202 232.423Z" fill="#C18053"/>
<path d="M330.414 224.874C332.684 231.223 340.39 228.569 341.829 231.749C341.829 231.749 344.849 227.177 341.349 221.687C337.848 216.198 332.672 217.647 332.672 217.647C332.672 217.647 328.923 220.705 330.414 224.874Z" fill="#C18053"/>
<path d="M321.308 290.216C321.308 290.216 324.12 291.728 331.356 291.728C338.594 291.728 345.186 288.544 345.186 288.544L344.989 292.018C344.989 292.018 339.522 294.792 331.566 294.792C323.61 294.792 321.139 293.181 321.139 293.181L321.308 290.216Z" fill="#C2C4C6"/>
<path d="M339.338 231.746C339.458 231.677 339.54 231.275 339.321 230.966C339.01 230.527 338.249 230.078 336.955 230.004C336.038 229.952 334.624 230.593 334.84 230.934C334.993 231.174 335.456 230.493 336.851 230.665C338.245 230.838 339.219 231.816 339.338 231.746Z" fill="#7F3B18"/>
<path d="M341.227 247.803C341.227 247.803 342.097 250.358 342.073 257.591C342.046 265.716 341.78 318.372 341.78 318.372C341.78 318.372 351.432 316.284 352.997 312.596C354.562 308.909 348.69 292.565 348.432 287.761C348.15 282.525 354.734 258.162 354.843 252.832C354.852 252.375 341.227 247.803 341.227 247.803Z" fill="#DD1948"/>
<path d="M326.081 246.529L330.851 250.941L326.736 254.051C326.736 254.051 323.219 247.961 326.081 246.529Z" fill="#C2C4C6"/>
<path d="M338.251 246.753L333.302 251.019L337.071 254.372C337.071 254.372 340.745 247.94 338.251 246.753Z" fill="#C2C4C6"/>
<path d="M332.114 251.895C332.114 251.895 331.361 285.796 331.362 291.751" stroke="#C2C4C6" stroke-width="1.31855" stroke-miterlimit="10"/>
<path d="M283.864 257.137L278.792 252.778L274.585 257.137L278.862 263.035L283.864 257.137Z" fill="#FFD3BB"/>
<path d="M279.235 251.031C279.097 250.452 276.754 244.541 275.842 243.036C274.93 241.531 273.075 242.029 273.205 243.156C273.334 244.282 274.379 247.394 274.379 247.394C274.379 247.394 269.546 243.667 269.086 243.338C267.862 242.464 267.387 241.816 266.226 241.873C265.391 241.913 265.17 242.698 265.17 242.698C265.17 242.698 264.487 242.452 264.021 243.211C263.592 243.908 264.455 244.684 264.455 244.684C264.455 244.684 264.004 244.546 263.384 245.236C262.623 246.082 263.64 246.964 263.64 246.964C263.64 246.964 262.693 247.243 262.298 248.218C262.067 248.788 262.647 249.229 266.19 251.888C266.861 252.392 269.43 254.911 270.275 255.645C274.034 258.911 275.37 258.601 275.37 258.601C275.37 258.601 280.12 254.73 279.235 251.031Z" fill="#FFD3BB"/>
<path d="M265.17 242.697L272.221 247.889" stroke="#EDA89F" stroke-width="2.66776" stroke-miterlimit="10"/>
<path d="M264.454 244.683L270.959 249.523" stroke="#EDA89F" stroke-width="2.66776" stroke-miterlimit="10"/>
<path d="M263.641 246.963L269.396 251.177" stroke="#EDA89F" stroke-width="2.66776" stroke-miterlimit="10"/>
<path d="M273.983 248.488C273.983 248.488 273.217 250.655 275.218 252.486" stroke="#EDA89F" stroke-width="2.66776" stroke-miterlimit="10"/>
<path d="M272.548 247.721L268.972 252.098" stroke="#EDA89F" stroke-width="2.66776" stroke-miterlimit="10"/>
<path d="M315.937 249.346C315.937 249.346 313.618 251.47 313.827 264.034" stroke="#A80E3A" stroke-width="2.66776" stroke-miterlimit="10" stroke-linecap="round" stroke-linejoin="round"/>
<path d="M307.393 264.118L308.984 263.146L308.857 264.204L307.393 264.118Z" fill="#3F4347"/>
<path d="M327.495 289.233H312.521C311.934 289.233 311.44 288.792 311.375 288.209L308.494 264.014C308.437 263.51 308.831 263.069 309.339 263.069H324.313C324.9 263.069 325.393 263.51 325.458 264.094L328.34 288.288C328.397 288.792 328.003 289.233 327.495 289.233Z" fill="#3F4347"/>
<path d="M326.186 289.233H310.658C310.071 289.233 309.577 288.792 309.512 288.209L306.915 264.98C306.859 264.476 307.253 264.034 307.76 264.034H323.289C323.876 264.034 324.369 264.476 324.434 265.059L327.032 288.288C327.089 288.792 326.694 289.233 326.186 289.233Z" fill="#5D6166"/>
<path d="M314.965 276.634C314.965 275.525 315.864 274.626 316.973 274.626C318.083 274.626 318.982 275.525 318.982 276.634C318.982 277.743 318.083 278.643 316.973 278.643C315.864 278.643 314.965 277.743 314.965 276.634Z" stroke="#9EA0A3" stroke-width="2.66776" stroke-miterlimit="10"/>
<path d="M309.411 266.008C309.411 266.346 309.137 266.619 308.8 266.619C308.462 266.619 308.189 266.346 308.189 266.008C308.189 265.671 308.462 265.398 308.8 265.398C309.137 265.398 309.411 265.671 309.411 266.008Z" fill="#3F4347"/>
<path d="M330.564 289.312C330.564 289.312 329.109 289.538 328.076 289.026C327.042 288.515 327.011 287.939 326.086 287.706C325.234 287.492 323.604 287.801 322.973 287.694C321.661 287.47 321.854 286.341 321.854 286.341C321.061 285.958 321.282 285.003 321.282 285.003C320.988 285.003 320.447 284.56 320.874 283.735C320.987 283.516 320.609 283.593 320.572 282.984C320.519 282.105 322.207 281.307 322.207 281.307C321.203 281.478 320.787 280.588 321.014 280.213C321.241 279.838 323.378 278.422 323.664 278.407C323.951 278.391 325.537 278.422 326.143 278.704C326.75 278.984 328.367 280.527 328.367 280.527L333.163 284.023C333.163 284.023 333.152 288.122 330.564 289.312Z" fill="#FFD3BB"/>
<path d="M325.443 285.826C325.443 285.826 323.016 285.736 321.853 286.34" stroke="#ECA79E" stroke-width="1.31855" stroke-miterlimit="10" stroke-linecap="round"/>
<path d="M325.12 284.13C325.12 284.13 322.328 283.94 321.281 285.003" stroke="#ECA79E" stroke-width="1.31855" stroke-miterlimit="10" stroke-linecap="round"/>
<path d="M324.828 282.272C324.828 282.272 321.619 282.439 320.757 283.913" stroke="#ECA79E" stroke-width="1.31855" stroke-miterlimit="10" stroke-linecap="round"/>
<path d="M322.207 281.307C322.207 281.307 323.527 280.458 323.648 280.429C323.648 280.429 324.347 280.414 324.893 280.506" stroke="#ECA79E" stroke-width="1.31855" stroke-miterlimit="10" stroke-linecap="round"/>
<path d="M333.163 284.023L337.5 285.335L334.701 291.517L330.721 289.233C330.721 289.233 329.565 284.95 333.163 284.023Z" fill="#FFD3BB"/>
<path d="M352.51 252.448C359.288 252.494 358.563 259.831 358.657 262.923C358.751 266.015 359.805 293.844 353.752 297.012C347.699 300.179 334.571 292.101 334.571 292.101L336.662 284.664L345.598 285.503C345.598 285.503 346.231 268.502 346.673 263.647C347.116 258.792 348.116 252.418 352.51 252.448Z" fill="#DD1948"/>
<path d="M335.503 284.731L334.701 291.517L336.554 285.049L335.503 284.731Z" fill="#ECA79E"/>
<path d="M354.843 252.831C354.843 252.831 350.811 252.816 349.63 255.936C348.449 259.056 346.678 285.821 346.678 285.821" stroke="#A80E3A" stroke-width="2.66776" stroke-miterlimit="10"/>
<path d="M336.663 284.664L350.22 286.34" stroke="#A80E3A" stroke-width="2.66776" stroke-miterlimit="10"/>
<path d="M334.571 292.101C334.571 292.101 342.884 297.612 350.76 297.748" stroke="#A80E3A" stroke-width="2.66776" stroke-miterlimit="10"/>
<path d="M327.998 233.519C327.998 233.951 327.722 234.302 327.382 234.302C327.042 234.302 326.766 233.951 326.766 233.519C326.766 233.087 327.042 232.737 327.382 232.737C327.722 232.737 327.998 233.087 327.998 233.519Z" fill="#7F3B18"/>
<path d="M335.297 234.105C335.297 234.536 335.022 234.886 334.682 234.886C334.344 234.886 334.068 234.536 334.068 234.105C334.068 233.673 334.344 233.324 334.682 233.324C335.022 233.324 335.297 233.673 335.297 234.105Z" fill="#7F3B18"/>
<path d="M432.813 360.27H440.985V410.713H432.813V360.27Z" fill="#5D6166"/>
<path d="M462.389 415.843C462.389 413.01 459.09 410.714 455.022 410.714H421.933C417.864 410.714 414.566 413.01 414.566 415.843" stroke="#2E3135" stroke-width="26.6776" stroke-miterlimit="10"/>
<path d="M474.238 277.7H447.902L438.016 343.756H465.748C468.78 343.756 471.607 341.296 472.061 338.263L480.095 284.588C480.664 280.784 478.042 277.7 474.238 277.7Z" fill="#2E3135"/>
<path d="M469.187 277.7H437.66C433.952 277.7 430.802 280.414 430.253 284.081L422.213 337.796C421.744 340.934 424.174 343.756 427.347 343.756H460.697C463.73 343.756 466.556 341.296 467.01 338.263L475.044 284.588C475.613 280.784 472.991 277.7 469.187 277.7Z" fill="#3F4347"/>
<path d="M465.806 343.751H411.56C410.981 343.751 410.511 344.221 410.511 344.801C410.511 349.113 414.006 352.609 418.318 352.609H457.999C462.311 352.609 465.806 349.113 465.806 344.801V343.751Z" fill="#5D6166"/>
<path d="M449.369 360.27H424.426C422.869 360.27 421.608 359.008 421.608 357.451V352.593H452.188V357.451C452.188 359.008 450.926 360.27 449.369 360.27Z" fill="#3F4347"/>
<path d="M467.851 415.843C467.851 418.86 465.406 421.306 462.389 421.306C459.371 421.306 456.926 418.86 456.926 415.843C456.926 412.826 459.371 410.38 462.389 410.38C465.406 410.38 467.851 412.826 467.851 415.843Z" fill="#5D6166"/>
<path d="M465.267 415.843C465.267 417.433 463.978 418.722 462.389 418.722C460.799 418.722 459.51 417.433 459.51 415.843C459.51 414.253 460.799 412.964 462.389 412.964C463.978 412.964 465.267 414.253 465.267 415.843Z" fill="#858789"/>
<path d="M419.873 415.843C419.873 418.86 417.427 421.306 414.41 421.306C411.393 421.306 408.948 418.86 408.948 415.843C408.948 412.826 411.393 410.38 414.41 410.38C417.427 410.38 419.873 412.826 419.873 415.843Z" fill="#5D6166"/>
<path d="M417.289 415.843C417.289 417.433 416 418.722 414.41 418.722C412.821 418.722 411.532 417.433 411.532 415.843C411.532 414.253 412.821 412.964 414.41 412.964C416 412.964 417.289 414.253 417.289 415.843Z" fill="#858789"/>
<path d="M432.812 360.27H440.984V365.158L432.812 362.539V360.27Z" fill="#2E3135"/>
<path d="M452.757 229.844H440.802C439.065 229.844 437.656 228.435 437.656 226.698V218.374C437.656 216.636 439.065 215.228 440.802 215.228H452.757C454.495 215.228 455.903 216.636 455.903 218.374V226.698C455.903 228.435 454.495 229.844 452.757 229.844Z" fill="#FF6600"/>
<path d="M440.802 229.845V232.156C440.802 233.572 442.527 234.266 443.509 233.246L446.78 229.845H440.802Z" fill="#FF6600"/>
<path d="M443.494 219.75L441.351 222.537L443.494 225.324" stroke="white" stroke-width="8.00328" stroke-miterlimit="10"/>
<path d="M450.065 225.323L452.209 222.536L450.065 219.749" stroke="white" stroke-width="8.00328" stroke-miterlimit="10"/>
<path d="M445.241 224.805L448.385 220.267" stroke="white" stroke-width="8.00328" stroke-miterlimit="10"/>
<path d="M379.403 395.814L378.623 404.537C378.623 404.537 379.8 407.664 382.862 408.24C385.923 408.818 388.066 407.843 388.066 407.843L391.282 394.308L379.403 395.814Z" fill="#DD815C"/>
<path d="M392.786 420.787H359.466C359.156 420.787 358.904 420.538 358.906 420.228C358.909 419.71 358.946 418.875 359.111 417.908C359.542 415.313 360.883 411.768 364.921 410.819C371.492 409.272 374.496 406.907 374.496 406.907C374.496 406.907 375.576 402.047 377.128 401.978C378.685 401.905 379.163 404.526 380.07 405.156C380.972 405.78 382.608 405.837 383.798 405.837C387.872 405.837 388.612 403.179 390.478 404.196C391.496 404.752 393.388 413.309 394.343 417.908C394.395 418.186 394.453 418.443 394.5 418.689C394.72 419.775 393.891 420.787 392.786 420.787Z" fill="#C2C4C6"/>
<path d="M392.786 420.787H359.466C359.156 420.787 358.904 420.538 358.906 420.229C358.909 419.71 358.946 418.876 359.111 417.909H394.343C394.395 418.187 394.453 418.443 394.5 418.69C394.72 419.775 393.891 420.787 392.786 420.787Z" fill="#9EA0A3"/>
<path d="M373.909 407.31C373.909 407.31 375.767 407.621 376.935 410.278" stroke="#9EA0A3" stroke-width="5.33552" stroke-miterlimit="10" stroke-linecap="round"/>
<path d="M370.884 408.413C370.884 408.413 372.741 408.725 373.91 411.382" stroke="#9EA0A3" stroke-width="5.33552" stroke-miterlimit="10" stroke-linecap="round"/>
<path d="M420.021 398.944L422.912 407.212C422.912 407.212 425.274 409.574 428.3 408.835C431.327 408.098 432.878 406.326 432.878 406.326L430.22 392.669L420.021 398.944Z" fill="#DD815C"/>
<path d="M406.989 323.255C406.989 323.255 386.303 331.012 384.433 332.094C382.563 333.177 379.881 336.08 379.291 342.281C378.7 348.482 377.44 396.483 377.44 396.483L392.794 399.632L401.993 349.472L439.841 323.255H406.989Z" fill="#5D6166"/>
<path d="M446.78 311.513C446.78 311.513 415.483 331.473 411.65 335.259C408.763 338.111 405.745 341.755 407.517 349.235C409.288 356.716 418.039 399.632 418.039 399.632L433.047 396.362L427.804 347.27L448.207 342.94C453.952 341.048 457.852 337.573 457.852 331.525V323.255L446.78 311.513Z" fill="#858789"/>
<path d="M409.612 267.642C409.612 267.642 406.928 269.359 405.662 271.774C402.355 278.078 400.76 298.951 400.76 298.951L398.487 311.512L410.988 313.574L415.018 282.008L409.612 267.642Z" fill="#A14EDD"/>
<path d="M419.675 263.844C419.675 263.844 411.105 265.415 408.12 268.903C403.263 274.578 410.831 303.651 410.831 303.651L410.511 322.271C410.511 322.271 415.425 326.449 424.659 325.782C432.544 325.212 436.219 322.626 444.985 320.765C453.749 318.904 457.853 323.255 457.853 323.255L455.687 315.154C455.687 315.154 455.642 272.303 454.46 269.645C453.28 266.988 441.366 265.015 441.366 265.015L419.675 263.844Z" fill="#A14EDD"/>
<path d="M435.144 250.104C435.144 250.104 435.211 259.051 435.9 262.595L427.281 270.305L423.946 262.89C423.946 262.89 424.057 261.1 423.596 260.004C423.197 259.055 435.144 250.104 435.144 250.104Z" fill="#CE6351"/>
<path d="M435.097 250.956C435.097 250.956 434.884 259.637 430.676 261.778C426.468 263.919 423.799 260.034 423.799 260.034L435.097 250.956Z" fill="#BA3735"/>
<path d="M413.722 239.299C413.722 239.299 412.295 241.12 413.23 243.039C414.165 244.958 416.33 245.296 416.33 245.296L416.625 239.053L413.722 239.299Z" fill="#2E3135"/>
<path d="M415.812 241.627C415.864 243.413 416.334 245.98 416.799 248.486C417.218 250.749 417.587 253.08 418.078 254.481C419.112 257.434 422.901 259.993 424.979 260.549C428.103 261.386 433.949 256.289 434.613 253.964C435.277 251.639 435.13 249.461 435.13 249.461L435.144 238.757C435.144 238.757 430.802 234.61 425.202 234.513C419.702 234.417 415.714 238.228 415.812 241.627Z" fill="#DD815C"/>
<path d="M423.507 249C423.507 249 423.04 251.412 423.212 251.977C423.385 252.543 423.999 252.912 423.999 252.912" stroke="#BA3735" stroke-width="1.31855" stroke-miterlimit="10" stroke-linecap="round"/>
<path d="M423.171 255.403C423.171 255.403 424.131 256.252 425.467 255.994C427.191 255.66 428.338 254.185 428.338 254.185" stroke="#BA3735" stroke-width="1.31855" stroke-miterlimit="10" stroke-linecap="round"/>
<path d="M425.754 244.113C425.671 243.604 427.372 241.982 429.199 241.981C430.875 241.98 430.681 243.399 429.542 243.998C428.819 244.379 425.907 245.045 425.754 244.113Z" fill="#2E3135"/>
<path d="M422.332 239.838C422.332 239.838 418.984 241.808 415.863 242.541C415.863 242.541 415.679 241.074 416.011 240.05C416.583 238.284 422.332 239.838 422.332 239.838Z" fill="#CE6351"/>
<path d="M421.858 244.453C421.866 243.938 419.946 242.582 418.138 242.849C416.481 243.094 416.881 244.469 418.094 244.895C418.866 245.165 421.845 245.398 421.858 244.453Z" fill="#2E3135"/>
<path d="M435.141 241.231L435.134 246.324L437.174 246.856L438.188 239.53L435.141 241.231Z" fill="#2E3135"/>
<path d="M435.139 241.515C434.121 241.71 430.291 241.569 429.294 239.346C429.294 239.346 425.751 241.981 422.332 239.837C422.332 239.837 412.665 243.451 410.608 236.29C409.18 231.318 412.283 226.84 417.036 226.842C419.235 226.842 420.899 228.838 420.899 228.838C420.899 228.838 423.75 226.855 427.65 227.931C431.549 229.007 432.372 231.353 432.372 231.353C432.372 231.353 438.189 232.525 438.968 236.74C439.585 240.072 436.357 241.281 435.139 241.515Z" fill="#2E3135"/>
<path d="M430.927 250.768L426.722 251.137C426.263 251.177 425.829 250.767 425.69 250.159L425.186 247.961C425.004 247.168 425.39 246.386 425.989 246.333L430.813 245.91C431.411 245.858 431.927 246.561 431.887 247.373L431.773 249.626C431.741 250.248 431.386 250.728 430.927 250.768Z" stroke="#2E3135" stroke-width="2.66776" stroke-miterlimit="10"/>
<path d="M421.216 251.62L417.011 251.989C416.552 252.029 416.118 251.618 415.979 251.01L415.475 248.812C415.293 248.019 415.679 247.237 416.278 247.185L421.102 246.762C421.7 246.709 422.216 247.413 422.175 248.224L422.062 250.477C422.03 251.1 421.675 251.579 421.216 251.62Z" stroke="#2E3135" stroke-width="2.66776" stroke-miterlimit="10"/>
<path d="M422.126 249.204C422.126 249.204 422.544 248.032 423.597 247.939C424.65 247.847 425.405 248.917 425.405 248.917" stroke="#2E3135" stroke-width="2.66776" stroke-miterlimit="10"/>
<path d="M431.841 246.889L437.336 244.798" stroke="#2E3135" stroke-width="2.66776" stroke-miterlimit="10"/>
<path d="M427.281 270.305C427.281 270.305 434.596 259.292 438.189 259.784C441.781 260.276 442.569 263.936 442.519 265.059C442.47 266.181 442.521 266.799 427.281 270.305Z" fill="#A14EDD"/>
<path d="M427.281 270.306C427.281 270.306 417.897 264.261 419.497 261.881C421.186 259.371 423.587 260.784 423.587 260.784C424.289 261.941 427.231 268.952 427.281 270.306Z" fill="#A14EDD"/>
<path d="M435.134 244.387C435.134 244.387 438.288 244.611 438.415 247.192C438.599 250.956 435.097 250.956 435.097 250.956L435.134 244.387Z" fill="#CE6351"/>
<path d="M421.219 310.931C421.219 310.931 418.228 307.87 412.992 309.901L415.472 306.12L421.482 305.581L423.087 309.913L421.219 310.931Z" fill="#BA3735"/>
<path d="M424.9 309.892C424.9 309.892 425.033 308.422 424.296 307.445C423.559 306.469 421.998 308.751 420.902 308.927C419.807 309.103 417.212 309.007 417.087 310.625C416.962 312.243 418.798 312.989 421.635 311.961C424.474 310.934 424.649 310.8 424.9 309.892Z" fill="#BA3735"/>
<path d="M425.018 312.011L434.427 315.153V308.257C434.427 308.257 424.894 306.252 423.514 305.83C422.134 305.409 420.052 304.498 419.214 304.32C418.377 304.142 417.17 304.767 416.706 304.746C416.243 304.725 414.27 303.946 413.211 304.615C412.152 305.283 408.027 309.211 408.671 310.984C409.315 312.757 411.291 311.521 411.291 311.521C411.269 313.403 412.685 313.882 413.629 313.212C414.206 312.802 414.145 312.732 414.339 311.288C414.533 309.845 416.399 308.917 416.665 308.784C416.986 308.622 417.657 308.344 418.766 308.72C419.619 309.008 420.197 309.314 421.219 310.931C421.652 311.617 424.235 312.219 425.018 312.011Z" fill="#DD815C"/>
<path d="M449.362 268.12C453.807 266.63 456.179 271.737 457.459 275.154C458.738 278.57 464.641 309.98 463.732 313.575C463.388 314.938 461.293 317.27 459.094 317.94C454.314 319.397 439.212 317.888 432.763 316.71C430.93 316.375 430.336 315.153 430.336 315.153L432.54 307.321C432.9 306.289 433.897 305.62 434.988 305.676L449.204 306.408C449.204 306.408 445.746 283.098 444.86 278.078C443.975 273.058 445.596 269.382 449.362 268.12Z" fill="#A14EDD"/>
<path d="M410.837 280.582L407.636 310.931" stroke="#6200A8" stroke-width="2.66776" stroke-miterlimit="10"/>
<path d="M432.763 306.853L428.276 305.785L426.826 313.707L432.004 314.938L432.763 306.853Z" fill="#6200A8"/>
<path d="M432.763 306.853C432.763 306.853 434.122 305.144 435.8 305.144C437.479 305.144 449.204 306.407 449.204 306.407L445.276 280.582" stroke="#6200A8" stroke-width="2.66776" stroke-miterlimit="10"/>
<path d="M420.61 248.941C420.654 249.365 420.434 249.735 420.119 249.767C419.803 249.8 419.513 249.482 419.469 249.058C419.426 248.634 419.646 248.264 419.961 248.232C420.276 248.199 420.567 248.517 420.61 248.941Z" fill="#2E3135"/>
<path d="M427.475 248.51C427.519 248.934 427.299 249.303 426.983 249.336C426.668 249.368 426.378 249.051 426.334 248.626C426.291 248.203 426.511 247.832 426.827 247.8C427.141 247.768 427.432 248.085 427.475 248.51Z" fill="#2E3135"/>
<path d="M430.022 314.938C430.022 314.938 431.812 317.004 432.763 317.398C433.713 317.792 447.498 318.974 456.551 318.383" stroke="#6200A8" stroke-width="2.66776" stroke-miterlimit="10"/>
<path d="M403.744 286.668H367.036C365.98 286.668 365.224 287.687 365.53 288.697L373.043 313.513C373.445 314.84 374.668 315.748 376.054 315.748H414.493L406.254 288.53C405.918 287.424 404.9 286.668 403.744 286.668Z" fill="#2E3135"/>
<path d="M430.955 312.857H396.007V315.748H430.955C431.534 315.748 432.004 315.278 432.004 314.699V313.906C432.004 313.327 431.534 312.857 430.955 312.857Z" fill="#2E3135"/>
<path d="M401.915 286.668H365.207C364.152 286.668 363.395 287.687 363.701 288.697L371.214 313.513C371.616 314.84 372.839 315.748 374.225 315.748H412.664L404.425 288.53C404.089 287.424 403.071 286.668 401.915 286.668Z" fill="#5D6166"/>
<path d="M378.306 294.896H367.012L365.358 289.102H376.652L378.306 294.896Z" fill="#2E3135"/>
<path d="M383.981 302.399C383.683 300.895 384.661 299.677 386.164 299.677C387.668 299.677 389.128 300.895 389.426 302.399C389.723 303.902 388.745 305.121 387.242 305.121C385.739 305.121 384.278 303.902 383.981 302.399Z" stroke="#9EA0A3" stroke-width="2.66776" stroke-miterlimit="10"/>
<path d="M369.183 290.034L367.641 292.039L369.183 294.044" stroke="white" stroke-width="5.33552" stroke-miterlimit="10"/>
<path d="M373.912 294.044L375.454 292.039L373.912 290.034" stroke="white" stroke-width="5.33552" stroke-miterlimit="10"/>
<path d="M370.44 293.672L372.703 290.406" stroke="white" stroke-width="5.33552" stroke-miterlimit="10"/>
<path d="M403.484 309.051H407.866L409.176 313.166L407.683 314.081L405.425 313.081L403.484 309.051Z" fill="#FF6600"/>
<path d="M405.571 312.931L407.668 313.86L408.943 313.079L407.723 309.248H403.797L405.571 312.931ZM407.698 314.303L405.279 313.232L403.172 308.854H408.011L409.411 313.253L407.698 314.303Z" fill="white"/>
<path d="M400.921 301.849H405.303L406.613 305.964L405.119 306.879L402.861 305.879L400.921 301.849Z" fill="#0C93EF"/>
<path d="M403.008 305.729L405.105 306.658L406.38 305.877L405.16 302.046H401.234L403.008 305.729ZM405.135 307.102L402.716 306.03L400.608 301.652H405.447L406.848 306.051L405.135 307.102Z" fill="white"/>
<path d="M435.873 421.311H402.553C402.243 421.311 401.991 421.062 401.993 420.753C401.996 420.234 402.034 419.399 402.198 418.433C402.629 415.837 403.971 412.293 408.008 411.343C414.579 409.796 417.583 407.431 417.583 407.431C417.583 407.431 418.663 402.571 420.215 402.502C421.772 402.429 422.25 405.051 423.157 405.68C424.059 406.304 425.695 406.362 426.885 406.362C430.959 406.362 431.699 403.703 433.566 404.721C434.583 405.276 436.475 413.834 437.43 418.433C437.482 418.71 437.54 418.967 437.587 419.214C437.807 420.299 436.979 421.311 435.873 421.311Z" fill="#F4F4F4"/>
<path d="M435.873 421.312H402.553C402.243 421.312 401.991 421.063 401.993 420.753C401.996 420.235 402.034 419.4 402.198 418.434H437.43C437.482 418.711 437.54 418.968 437.587 419.214C437.807 420.3 436.979 421.312 435.873 421.312Z" fill="#C2C4C6"/>
<path d="M416.997 407.834C416.997 407.834 418.854 408.146 420.022 410.803" stroke="#C2C4C6" stroke-width="5.33552" stroke-miterlimit="10" stroke-linecap="round"/>
<path d="M413.971 408.938C413.971 408.938 415.828 409.25 416.997 411.906" stroke="#C2C4C6" stroke-width="5.33552" stroke-miterlimit="10" stroke-linecap="round"/>
<path d="M420.105 399.182L431.024 396.803L431.574 399.632L420.105 399.182Z" fill="#BA3735"/>
<path d="M379.309 396.866L389.46 401.977L390.146 399.089L379.309 396.866Z" fill="#BA3735"/>
<path d="M427.931 397.477C427.931 397.477 418.918 348.156 419.807 343.875C420.697 339.593 448.453 333.245 449.338 330.44C450.225 327.635 449.204 323.255 449.204 323.255" stroke="#5D6166" stroke-width="1.31855" stroke-miterlimit="10"/>
<path d="M383.936 397.477C383.936 397.477 389.077 346.898 391.282 343.65C393.487 340.402 416.7 325.469 416.7 325.469" stroke="#2E3135" stroke-width="1.31855" stroke-miterlimit="10"/>
<path d="M442.284 265.059C442.284 265.059 442.588 265.775 441.21 266.563C439.832 267.35 427.046 270.306 427.046 270.306C427.046 270.306 421.039 267.341 419.675 263.844" stroke="#6200A8" stroke-width="2.66776" stroke-miterlimit="10"/>
<path d="M430.336 268.659C430.336 268.659 433.884 276.655 434.535 286.668" stroke="white" stroke-width="2.66776" stroke-miterlimit="10"/>
<path d="M424.748 267.854C424.748 267.854 423.103 271.686 421.875 286.668" stroke="white" stroke-width="2.66776" stroke-miterlimit="10"/>
<path d="M435.545 286.668C435.545 287.225 435.093 287.678 434.536 287.678C433.978 287.678 433.526 287.225 433.526 286.668C433.526 286.111 433.978 285.658 434.536 285.658C435.093 285.658 435.545 286.111 435.545 286.668Z" fill="white"/>
<path d="M422.884 286.668C422.884 287.225 422.432 287.678 421.874 287.678C421.317 287.678 420.865 287.225 420.865 286.668C420.865 286.111 421.317 285.658 421.874 285.658C422.432 285.658 422.884 286.111 422.884 286.668Z" fill="white"/>
<path d="M418.039 399.632L417.278 395.748L432.639 392.539L433.047 396.363L418.039 399.632Z" fill="#5D6166"/>
<path d="M377.44 396.483L377.564 391.858L393.587 395.305L392.794 399.632L377.44 396.483Z" fill="#2E3135"/>
<path d="M453.933 423.633H447.147L424.174 332.593H430.96L453.933 423.633Z" fill="#9EA0A3"/>
<path d="M431.832 336.048H425.045L424.174 332.593H430.96L431.832 336.048Z" fill="#5D6166"/>
<path d="M62.5265 315.782H468.276C468.905 315.782 469.415 316.292 469.415 316.922V324.676C469.415 325.306 468.905 325.816 468.276 325.816H62.5265C61.8967 325.816 61.3865 325.306 61.3865 324.676V316.922C61.3865 316.292 61.8967 315.782 62.5265 315.782Z" fill="#E1E1E2"/>
<path d="M71.5406 325.816H459.261V332.593H74.4309C72.8348 332.593 71.5406 331.299 71.5406 329.703V325.816Z" fill="#C2C4C6"/>
<path d="M71.5402 325.816H459.261V328.112H71.5402V325.816Z" fill="#9EA0A3"/>
<path d="M286.267 304.204C286.267 304.204 278.889 301.537 281.522 292.784C281.522 292.784 289.594 292.8 288.393 303.966L286.267 304.204Z" fill="#0BA877"/>
<path d="M283.535 302.432C283.535 302.432 287.314 301.594 287.832 297.526L288.36 299.045L288.504 302.433L283.535 302.432Z" fill="#038C5E"/>
<path d="M290.493 304.189C290.493 304.189 298.983 301.12 295.952 291.049C295.952 291.049 286.665 291.068 288.048 303.915L290.493 304.189Z" fill="#28CE8A"/>
<path d="M295.011 302.432V309.185C295.011 311.009 294.272 312.656 293.081 313.851C291.886 315.042 290.239 315.782 288.42 315.782C285.054 315.782 282.28 313.264 281.881 310.008C281.839 309.74 281.824 309.463 281.824 309.185V302.432H295.011Z" fill="#C2C4C6"/>
<path d="M294.502 302.432V307.339C294.502 309.164 293.763 310.81 292.573 312.006C291.377 313.196 289.73 313.935 287.906 313.935C285.216 313.935 282.898 312.32 281.881 310.008C281.839 309.74 281.823 309.463 281.823 309.185V302.432H294.502Z" fill="#E1E1E2"/>
<path d="M284.578 314.438H292.255V315.781H284.578V314.438Z" fill="#C2C4C6"/>
</g>
<defs>
<clipPath id="clip0_2783_4062">
<rect width="513" height="513" fill="white"/>
</clipPath>
</defs>
</svg>
