<svg width="91" height="91" viewBox="0 0 91 91" fill="none" xmlns="http://www.w3.org/2000/svg">
<path d="M65.625 0H25C23.2741 0 21.875 1.39911 21.875 3.125V87.5C21.875 89.2259 23.2741 90.625 25 90.625H65.625C67.3509 90.625 68.75 89.2259 68.75 87.5V3.125C68.75 1.39911 67.3509 0 65.625 0Z" fill="#3CACEF"/>
<path d="M34.375 0H56.25V4.6875C56.25 5.1019 56.0854 5.49933 55.7924 5.79235C55.4993 6.08538 55.1019 6.25 54.6875 6.25H35.9375C35.5231 6.25 35.1257 6.08538 34.8326 5.79235C34.5396 5.49933 34.375 5.1019 34.375 4.6875V0Z" fill="#44394A"/>
<path d="M87.5 39.0625H59.375C58.5462 39.0625 57.7513 39.3917 57.1653 39.9778C56.5792 40.5638 56.25 41.3587 56.25 42.1875V64.0625C56.25 64.8913 56.5792 65.6862 57.1653 66.2722C57.7513 66.8583 58.5462 67.1875 59.375 67.1875H63.5L60.9375 76.5625L73.4375 67.1875H87.5C88.3288 67.1875 89.1237 66.8583 89.7097 66.2722C90.2958 65.6862 90.625 64.8913 90.625 64.0625V42.1875C90.625 41.3587 90.2958 40.5638 89.7097 39.9778C89.1237 39.3917 88.3288 39.0625 87.5 39.0625ZM3.125 12.5H31.25C32.0788 12.5 32.8737 12.8292 33.4597 13.4153C34.0458 14.0013 34.375 14.7962 34.375 15.625V37.5C34.375 38.3288 34.0458 39.1237 33.4597 39.7097C32.8737 40.2958 32.0788 40.625 31.25 40.625H27.125L29.6875 50L17.1875 40.625H3.125C2.2962 40.625 1.50134 40.2958 0.915291 39.7097C0.32924 39.1237 0 38.3288 0 37.5V15.625C0 14.7962 0.32924 14.0013 0.915291 13.4153C1.50134 12.8292 2.2962 12.5 3.125 12.5Z" fill="#D7E6EF"/>
<path d="M62.5 26.5625C63.3629 26.5625 64.0625 25.8629 64.0625 25C64.0625 24.1371 63.3629 23.4375 62.5 23.4375C61.6371 23.4375 60.9375 24.1371 60.9375 25C60.9375 25.8629 61.6371 26.5625 62.5 26.5625Z" fill="white"/>
<path d="M62.5 20.3125C62.9144 20.3125 63.3118 20.1479 63.6049 19.8549C63.8979 19.5618 64.0625 19.1644 64.0625 18.75V9.375C64.0625 8.9606 63.8979 8.56317 63.6049 8.27015C63.3118 7.97712 62.9144 7.8125 62.5 7.8125C62.0856 7.8125 61.6882 7.97712 61.3951 8.27015C61.1021 8.56317 60.9375 8.9606 60.9375 9.375V18.75C60.9375 19.1644 61.1021 19.5618 61.3951 19.8549C61.6882 20.1479 62.0856 20.3125 62.5 20.3125Z" fill="white"/>
<path d="M62.5 45.3125C62.5 45.7269 62.6646 46.1243 62.9576 46.4174C63.2507 46.7104 63.6481 46.875 64.0625 46.875H84.375C84.7894 46.875 85.1868 46.7104 85.4799 46.4174C85.7729 46.1243 85.9375 45.7269 85.9375 45.3125C85.9375 44.8981 85.7729 44.5007 85.4799 44.2076C85.1868 43.9146 84.7894 43.75 84.375 43.75H64.0625C63.6481 43.75 63.2507 43.9146 62.9576 44.2076C62.6646 44.5007 62.5 44.8981 62.5 45.3125ZM78.125 51.5625H64.0625C63.6481 51.5625 63.2507 51.7271 62.9576 52.0201C62.6646 52.3132 62.5 52.7106 62.5 53.125C62.5 53.5394 62.6646 53.9368 62.9576 54.2299C63.2507 54.5229 63.6481 54.6875 64.0625 54.6875H78.125C78.5394 54.6875 78.9368 54.5229 79.2299 54.2299C79.5229 53.9368 79.6875 53.5394 79.6875 53.125C79.6875 52.7106 79.5229 52.3132 79.2299 52.0201C78.9368 51.7271 78.5394 51.5625 78.125 51.5625ZM68.75 60.9375C68.75 61.3519 68.9146 61.7493 69.2076 62.0424C69.5007 62.3354 69.8981 62.5 70.3125 62.5H84.375C84.7894 62.5 85.1868 62.3354 85.4799 62.0424C85.7729 61.7493 85.9375 61.3519 85.9375 60.9375C85.9375 60.5231 85.7729 60.1257 85.4799 59.8326C85.1868 59.5396 84.7894 59.375 84.375 59.375H70.3125C69.8981 59.375 69.5007 59.5396 69.2076 59.8326C68.9146 60.1257 68.75 60.5231 68.75 60.9375Z" fill="#A4C0D8"/>
<path d="M84.375 54.6875C85.2379 54.6875 85.9375 53.9879 85.9375 53.125C85.9375 52.2621 85.2379 51.5625 84.375 51.5625C83.5121 51.5625 82.8125 52.2621 82.8125 53.125C82.8125 53.9879 83.5121 54.6875 84.375 54.6875Z" fill="#A4C0D8"/>
<path d="M64.0625 62.5C64.9254 62.5 65.625 61.8004 65.625 60.9375C65.625 60.0746 64.9254 59.375 64.0625 59.375C63.1996 59.375 62.5 60.0746 62.5 60.9375C62.5 61.8004 63.1996 62.5 64.0625 62.5Z" fill="#A4C0D8"/>
<path d="M6.25 20.3125H26.5625C26.9769 20.3125 27.3743 20.1479 27.6674 19.8549C27.9604 19.5618 28.125 19.1644 28.125 18.75C28.125 18.3356 27.9604 17.9382 27.6674 17.6451C27.3743 17.3521 26.9769 17.1875 26.5625 17.1875H6.25C5.8356 17.1875 5.43817 17.3521 5.14515 17.6451C4.85212 17.9382 4.6875 18.3356 4.6875 18.75C4.6875 19.1644 4.85212 19.5618 5.14515 19.8549C5.43817 20.1479 5.8356 20.3125 6.25 20.3125ZM26.5625 25H12.5C12.0856 25 11.6882 25.1646 11.3951 25.4576C11.1021 25.7507 10.9375 26.1481 10.9375 26.5625C10.9375 26.9769 11.1021 27.3743 11.3951 27.6674C11.6882 27.9604 12.0856 28.125 12.5 28.125H26.5625C26.9769 28.125 27.3743 27.9604 27.6674 27.6674C27.9604 27.3743 28.125 26.9769 28.125 26.5625C28.125 26.1481 27.9604 25.7507 27.6674 25.4576C27.3743 25.1646 26.9769 25 26.5625 25ZM6.25 35.9375H20.3125C20.7269 35.9375 21.1243 35.7729 21.4174 35.4799C21.7104 35.1868 21.875 34.7894 21.875 34.375C21.875 33.9606 21.7104 33.5632 21.4174 33.2701C21.1243 32.9771 20.7269 32.8125 20.3125 32.8125H6.25C5.8356 32.8125 5.43817 32.9771 5.14515 33.2701C4.85212 33.5632 4.6875 33.9606 4.6875 34.375C4.6875 34.7894 4.85212 35.1868 5.14515 35.4799C5.43817 35.7729 5.8356 35.9375 6.25 35.9375Z" fill="#A4C0D8"/>
<path d="M6.25 28.125C7.11295 28.125 7.8125 27.4254 7.8125 26.5625C7.8125 25.6996 7.11295 25 6.25 25C5.38706 25 4.6875 25.6996 4.6875 26.5625C4.6875 27.4254 5.38706 28.125 6.25 28.125Z" fill="#A4C0D8"/>
<path d="M26.5625 35.9375C27.4254 35.9375 28.125 35.2379 28.125 34.375C28.125 33.5121 27.4254 32.8125 26.5625 32.8125C25.6996 32.8125 25 33.5121 25 34.375C25 35.2379 25.6996 35.9375 26.5625 35.9375Z" fill="#A4C0D8"/>
<path d="M35.9375 53.125H43.75C44.1644 53.125 44.5618 52.9604 44.8549 52.6674C45.1479 52.3743 45.3125 51.9769 45.3125 51.5625C45.3125 51.1481 45.1479 50.7507 44.8549 50.4576C44.5618 50.1646 44.1644 50 43.75 50H35.9375C35.5231 50 35.1257 50.1646 34.8326 50.4576C34.5396 50.7507 34.375 51.1481 34.375 51.5625C34.375 51.9769 34.5396 52.3743 34.8326 52.6674C35.1257 52.9604 35.5231 53.125 35.9375 53.125ZM48.4375 26.5625H56.25C56.6644 26.5625 57.0618 26.3979 57.3549 26.1049C57.6479 25.8118 57.8125 25.4144 57.8125 25C57.8125 24.5856 57.6479 24.1882 57.3549 23.8951C57.0618 23.6021 56.6644 23.4375 56.25 23.4375H48.4375C48.0231 23.4375 47.6257 23.6021 47.3326 23.8951C47.0396 24.1882 46.875 24.5856 46.875 25C46.875 25.4144 47.0396 25.8118 47.3326 26.1049C47.6257 26.3979 48.0231 26.5625 48.4375 26.5625ZM46.875 78.125H54.6875C55.1019 78.125 55.4993 77.9604 55.7924 77.6674C56.0854 77.3743 56.25 76.9769 56.25 76.5625C56.25 76.1481 56.0854 75.7507 55.7924 75.4576C55.4993 75.1646 55.1019 75 54.6875 75H46.875C46.4606 75 46.0632 75.1646 45.7701 75.4576C45.4771 75.7507 45.3125 76.1481 45.3125 76.5625C45.3125 76.9769 45.4771 77.3743 45.7701 77.6674C46.0632 77.9604 46.4606 78.125 46.875 78.125ZM29.6875 59.375H43.75C44.1644 59.375 44.5618 59.2104 44.8549 58.9174C45.1479 58.6243 45.3125 58.2269 45.3125 57.8125C45.3125 57.3981 45.1479 57.0007 44.8549 56.7076C44.5618 56.4146 44.1644 56.25 43.75 56.25H29.6875C29.2731 56.25 28.8757 56.4146 28.5826 56.7076C28.2896 57.0007 28.125 57.3981 28.125 57.8125C28.125 58.2269 28.2896 58.6243 28.5826 58.9174C28.8757 59.2104 29.2731 59.375 29.6875 59.375ZM42.1875 32.8125H56.25C56.6644 32.8125 57.0618 32.6479 57.3549 32.3549C57.6479 32.0618 57.8125 31.6644 57.8125 31.25C57.8125 30.8356 57.6479 30.4382 57.3549 30.1451C57.0618 29.8521 56.6644 29.6875 56.25 29.6875H42.1875C41.7731 29.6875 41.3757 29.8521 41.0826 30.1451C40.7896 30.4382 40.625 30.8356 40.625 31.25C40.625 31.6644 40.7896 32.0618 41.0826 32.3549C41.3757 32.6479 41.7731 32.8125 42.1875 32.8125ZM45.3125 82.8125C45.3125 83.2269 45.4771 83.6243 45.7701 83.9174C46.0632 84.2104 46.4606 84.375 46.875 84.375H60.9375C61.3519 84.375 61.7493 84.2104 62.0424 83.9174C62.3354 83.6243 62.5 83.2269 62.5 82.8125C62.5 82.3981 62.3354 82.0007 62.0424 81.7076C61.7493 81.4146 61.3519 81.25 60.9375 81.25H46.875C46.4606 81.25 46.0632 81.4146 45.7701 81.7076C45.4771 82.0007 45.3125 82.3981 45.3125 82.8125Z" fill="#196FA2"/>
</svg>
