<svg width="394" height="344" viewBox="0 0 394 344" fill="none" xmlns="http://www.w3.org/2000/svg">
<path d="M275.541 338.883L269.566 338.882L266.724 315.854L275.543 315.855L275.541 338.883Z" fill="#FFB6B6"/>
<path d="M255.07 338.747C254.884 339.061 254.786 340.071 254.786 340.435C254.786 341.554 255.694 342.461 256.814 342.461H275.318C276.082 342.461 276.702 341.843 276.702 341.079V340.309C276.702 340.309 277.617 337.996 275.732 335.144C275.732 335.144 273.39 337.377 269.89 333.88L268.858 332.012L261.387 337.471L257.245 337.98C256.339 338.092 255.536 337.963 255.07 338.747H255.07H255.07Z" fill="#2F2E41"/>
<path d="M338.618 331.414L333.158 333.839L321.198 313.951L329.257 310.371L338.618 331.414Z" fill="#FFB6B6"/>
<path d="M319.857 339.6C319.814 339.962 320.135 340.925 320.283 341.258C320.738 342.28 321.937 342.741 322.96 342.286L339.869 334.775C340.567 334.465 340.882 333.648 340.571 332.95L340.258 332.247C340.258 332.247 340.154 329.761 337.273 327.921C337.273 327.921 336.04 330.912 331.42 329.137L329.717 327.849L325.11 335.87L321.533 338.016C320.75 338.486 319.964 338.694 319.857 339.6L319.857 339.6Z" fill="#2F2E41"/>
<path d="M262.556 194.789L257.243 205.936L266.274 321.654H277.569L282.212 245.747L322.746 321.654H336.601L315.681 267.511L301.337 196.912L262.556 194.789Z" fill="#2F2E41"/>
<path d="M291.001 123.302H276.993L271.855 131.357L260.266 136.895L262.786 171.631L261.522 196.959L263.254 196.908C275.616 196.548 287.974 198.557 299.447 203.173C302.39 204.357 305.476 205.018 308.132 204.354C308.132 204.354 307.124 200.327 306.116 199.32C305.109 198.313 304.605 197.481 305.109 196.89C305.613 196.299 306.62 195.796 305.613 194.789C304.605 193.782 304.605 192.514 304.605 192.514L301.582 170.121L307.628 138.405L295.032 131.357L291.001 123.302V123.302Z" fill="#E5E5E5"/>
<path d="M315.073 167.217L314.691 196.925L307.293 223.408L301.379 221.204L304.005 196.93L303.66 164.08L315.073 167.217Z" fill="#FFB6B6"/>
<path d="M307.268 227.679C307.962 223.87 306.69 220.45 304.427 220.038C302.164 219.626 299.767 222.38 299.073 226.188C298.379 229.996 299.651 233.417 301.914 233.828C304.177 234.24 306.574 231.487 307.268 227.679Z" fill="#FFB6B6"/>
<path d="M304.605 136.895C304.605 136.895 312.952 138.187 313.061 145.344C313.17 152.501 321.232 164.08 316.193 173.142L303.093 175.155L296.04 149.48L304.101 135.888" fill="#E5E5E5"/>
<path d="M266.505 161.985L249.87 186.611L229.141 204.695L225.407 199.61L240.934 180.756L258.686 153.105L266.505 161.985Z" fill="#FFB6B6"/>
<path d="M226.775 208.251C229.446 205.448 230.261 201.891 228.596 200.306C226.93 198.721 223.414 199.709 220.743 202.512C218.071 205.315 217.256 208.872 218.922 210.457C220.587 212.042 224.103 211.054 226.775 208.251Z" fill="#FFB6B6"/>
<path d="M274.406 130.896C274.406 130.896 280.675 136.553 276.835 142.596C272.996 148.639 273.376 162.739 264.187 167.552L252.13 162.053C253.146 152.125 253.738 141.832 260.333 136.721L274.538 129.778" fill="#E5E5E5"/>
<path d="M281.823 121.227C288.746 121.227 294.358 115.62 294.358 108.703C294.358 101.786 288.746 96.1787 281.823 96.1787C274.9 96.1787 269.289 101.786 269.289 108.703C269.289 115.62 274.9 121.227 281.823 121.227Z" fill="#FFB6B6"/>
<path d="M291.029 118.993C291.72 119.111 292.53 117.439 293.305 115.81C294.926 112.401 295.957 110.234 296.035 107.17C296.102 104.56 295.376 105.245 294.67 99.4402C294.437 97.5256 291.163 97.5293 290.497 96.6202C289.372 95.0845 291.099 94.4512 288.299 93.5287C283.054 91.8009 280.682 94.485 277.351 94.7163C277.267 94.7221 275.616 96.3356 274.694 96.419C273.078 96.5652 270.747 96.3137 269.703 93.8541C268.726 91.5544 268.078 98.2747 268.952 99.1064C269.693 99.8125 270.972 101.585 271.005 101.714C271.042 101.86 267.964 98.4528 267.45 99.8567C267.08 100.867 268.244 106.066 269.184 106.261C269.971 106.424 271.894 103.835 271.46 104.897C270.454 107.36 276.504 108.932 283.748 103.987C284.004 103.812 283.762 104.092 284.658 106.261C285.788 108.997 286.043 109.145 286.023 109.899C285.98 111.53 284.754 112.01 285.113 113.082C285.403 113.95 286.537 114.622 287.388 114.446C288.349 114.248 288.513 113.061 289.209 113.082C289.804 113.1 290.511 113.996 290.574 114.901C290.707 116.807 287.883 117.331 287.388 119.903C287.109 121.354 290.395 118.885 291.029 118.993Z" fill="#2F2E41"/>
<path d="M191.801 343.032H84.0965C67.9422 343.032 54.7996 329.9 54.7996 313.759V29.2728C54.7996 13.1318 67.9422 0 84.0965 0H191.801C207.955 0 221.098 13.1318 221.098 29.2728C223.103 143.514 226.522 271.445 221.098 313.759C221.098 329.9 207.955 343.032 191.801 343.032Z" fill="#3F3D56"/>
<path d="M222.6 104.643C221.916 104.643 221.361 105.199 221.361 105.882V145.51C221.361 146.193 221.916 146.748 222.6 146.748C223.284 146.748 223.839 146.193 223.839 145.51V105.882C223.839 105.199 223.284 104.643 222.6 104.643Z" fill="#3F3D56"/>
<path d="M218.31 29.273V313.754C218.31 327.803 207.366 339.296 193.528 340.187H193.521C193.317 340.2 193.112 340.212 192.902 340.218C192.536 340.237 192.171 340.243 191.799 340.243C191.799 340.243 190.435 340.144 187.944 339.958C185.428 339.772 181.766 339.494 177.198 339.128C175.829 339.023 174.385 338.905 172.861 338.782C169.824 338.534 166.49 338.262 162.914 337.952C161.489 337.834 160.014 337.704 158.508 337.574C150.812 336.912 142.191 336.138 133.1 335.258C131.564 335.116 130.014 334.967 128.453 334.813C128.044 334.769 57.5886 317.073 57.5886 313.754V29.273C57.5886 14.6416 69.4559 2.78406 84.0995 2.78406H99.9267C102.455 2.78406 104.488 4.75308 104.705 7.27319C104.723 7.44039 104.742 7.60754 104.773 7.77473C105.231 10.3072 107.555 12.0719 110.133 12.0719H165.765C168.343 12.0719 170.667 10.3072 171.125 7.77473C171.156 7.60754 171.175 7.44039 171.194 7.27319C171.41 4.75308 173.443 2.78406 175.971 2.78406H191.799C206.442 2.78406 218.31 14.6416 218.31 29.273Z" fill="white"/>
<path d="M54.1801 74.9221C53.4965 74.9221 52.9407 75.4775 52.9407 76.1605V86.0675C52.9407 86.7505 53.4965 87.3059 54.1801 87.3059C54.8636 87.3059 55.4195 86.7505 55.4195 86.0675V76.1605C55.4195 75.4775 54.8636 74.9221 54.1801 74.9221Z" fill="#3F3D56"/>
<path d="M54.1801 104.643C53.4965 104.643 52.9407 105.199 52.9407 105.882V125.077C52.9407 125.76 53.4965 126.315 54.1801 126.315C54.8636 126.315 55.4195 125.76 55.4195 125.077V105.882C55.4195 105.199 54.8636 104.643 54.1801 104.643Z" fill="#3F3D56"/>
<path d="M54.1801 131.888C53.4965 131.888 52.9407 132.443 52.9407 133.126V152.321C52.9407 153.004 53.4965 153.559 54.1801 153.559C54.8636 153.559 55.4195 153.004 55.4195 152.321V133.126C55.4195 132.443 54.8636 131.888 54.1801 131.888Z" fill="#3F3D56"/>
<path d="M99.4953 7.12085H75.7928C75.6641 7.12085 75.5598 7.22506 75.5598 7.35361V9.98405C75.5598 10.1126 75.6641 10.2168 75.7928 10.2168H99.4953C99.6239 10.2168 99.7282 10.1126 99.7282 9.98405V7.35361C99.7282 7.22506 99.6239 7.12085 99.4953 7.12085Z" fill="#E6E6E6"/>
<path d="M179.888 10.2167C181.257 10.2167 182.367 9.10783 182.367 7.73995C182.367 6.37207 181.257 5.26318 179.888 5.26318C178.519 5.26318 177.409 6.37207 177.409 7.73995C177.409 9.10783 178.519 10.2167 179.888 10.2167Z" fill="#E6E6E6"/>
<path d="M186.705 10.2167C188.074 10.2167 189.183 9.10783 189.183 7.73995C189.183 6.37207 188.074 5.26318 186.705 5.26318C185.336 5.26318 184.226 6.37207 184.226 7.73995C184.226 9.10783 185.336 10.2167 186.705 10.2167Z" fill="#E6E6E6"/>
<path d="M193.521 10.2167C194.89 10.2167 196 9.10783 196 7.73995C196 6.37207 194.89 5.26318 193.521 5.26318C192.152 5.26318 191.042 6.37207 191.042 7.73995C191.042 9.10783 192.152 10.2167 193.521 10.2167Z" fill="#E6E6E6"/>
<path d="M194.31 227.893C194.31 199.662 170.429 184.132 143.15 176.776C108.176 167.346 82.562 186.429 91.9906 227.894C98.2505 255.423 130.025 296.508 143.15 271.507C158.169 242.9 194.31 256.125 194.31 227.893Z" fill="#F2F2F2"/>
<path d="M0 343.107C0 343.602 0.398025 344 0.893673 344H393.106C393.602 344 394 343.602 394 343.107C394 342.612 393.602 342.214 393.106 342.214H0.893673C0.398025 342.214 0 342.612 0 343.107Z" fill="#CCCCCC"/>
<path d="M125.567 222.854L119.386 219.929C121.921 223.464 124.106 228.984 125.275 233.377C127.255 229.285 130.447 224.278 133.606 221.287L127.074 222.966C131.099 203.257 146.237 189.107 163.573 189.107L163.819 188.395C145.711 188.395 129.676 202.349 125.567 222.854Z" fill="#3F3D56"/>
<path d="M154.012 252.885H114.963C113.307 252.885 111.959 251.539 111.959 249.884C111.959 248.229 113.307 246.883 114.963 246.883H154.012C155.668 246.883 157.016 248.229 157.016 249.884C157.016 251.539 155.668 252.885 154.012 252.885Z" fill="#E5E5E5"/>
<path d="M190.516 97.3365V176.871C190.516 183.905 184.789 189.627 177.749 189.627H98.1489C91.1095 189.627 85.3828 183.905 85.3828 176.871V97.3365C85.3828 90.3029 91.1095 84.5809 98.1489 84.5809H177.749C184.789 84.5809 190.516 90.3029 190.516 97.3365ZM177.749 188.126C183.971 188.126 189.014 183.087 189.014 176.871V136.773C189.014 108.777 166.3 86.0816 138.28 86.0816H98.1489C91.9279 86.0816 86.8847 91.1206 86.8847 97.3365V176.871C86.8847 183.087 91.9279 188.126 98.1489 188.126H177.749Z" fill="#3F3D56"/>
<path d="M148.546 117.064H122.848C122.2 117.064 121.673 116.538 121.673 115.89C121.673 115.243 122.2 114.716 122.848 114.716H148.546C149.193 114.716 149.72 115.243 149.72 115.89C149.72 116.538 149.193 117.064 148.546 117.064V117.064Z" fill="#3F3D56"/>
<path d="M148.546 142.098H122.848C122.2 142.098 121.673 141.571 121.673 140.924C121.673 140.277 122.2 139.75 122.848 139.75H148.546C149.193 139.75 149.72 140.277 149.72 140.924C149.72 141.571 149.193 142.098 148.546 142.098V142.098Z" fill="#3F3D56"/>
<path d="M135.779 176.613H110.082C109.434 176.613 108.906 176.086 108.906 175.439C108.906 174.792 109.434 174.265 110.082 174.265H135.779C136.427 174.265 136.954 174.792 136.954 175.439C136.954 176.086 136.427 176.613 135.779 176.613V176.613Z" fill="#3F3D56"/>
<path d="M162.335 129.589H109.058C108.41 129.589 107.883 129.063 107.883 128.415C107.883 127.768 108.41 127.241 109.058 127.241H162.335C162.983 127.241 163.51 127.768 163.51 128.415C163.51 129.063 162.983 129.589 162.335 129.589V129.589Z" fill="#3F3D56"/>
</svg>
