<svg width="230" height="117" viewBox="0 0 230 117" fill="none" xmlns="http://www.w3.org/2000/svg">
<path d="M138.774 60.0974C138.774 60.0974 139.276 68.8994 133.082 68.8073L132.698 71.984L124.781 71.0247L126.656 55.5414L138.421 54.7236L138.774 60.0974Z" fill="#FFCEC8"/>
<path d="M123.875 61.8104C123.829 62.205 123.902 62.6041 124.083 62.9575C124.264 63.3109 124.546 63.6026 124.893 63.7958C125.24 63.9891 125.637 64.0752 126.032 64.0432C126.428 64.0113 126.806 63.8628 127.117 63.6165C127.429 63.3701 127.66 63.037 127.783 62.6592C127.905 62.2813 127.913 61.8757 127.805 61.4935C127.697 61.1114 127.478 60.7698 127.176 60.5119C126.874 60.254 126.502 60.0914 126.108 60.0446C125.577 59.9832 125.045 60.1347 124.626 60.4657C124.207 60.7968 123.937 61.2804 123.875 61.8104Z" fill="#FFCEC8"/>
<path d="M133.083 68.8081C133.083 68.8081 130.299 68.4464 128.516 66.5615C128.516 66.5615 129.047 69.0664 132.932 70.0516L133.083 68.8081Z" fill="#FFB1A8"/>
<path d="M135.781 55.7369C135.781 55.7369 133.157 61.2264 126.345 60.1267C126.345 60.1267 125.192 59.6324 124.397 60.9669C124.397 60.9669 118.643 56.9804 121.38 48.9096C121.38 48.9096 132.613 37.6655 140.082 48.2221C140.202 48.3535 140.315 48.4923 140.419 48.6377C141.832 50.5586 141.938 53.1488 140.776 55.2314L140.538 55.6582C140.538 55.6582 143.037 59.8211 138.853 60.904C138.854 60.904 136.142 58.8461 135.781 55.7369Z" fill="#FDA95B"/>
<path d="M121.376 48.9086C121.376 48.9086 117.092 51.1035 114.332 47.7853C113.839 47.1922 113.658 45.7578 114.015 45.0703C114.258 44.5952 114.764 44.1616 115.779 44.0347C115.779 44.0347 114.155 43.3978 114.35 40.4975C114.563 37.3298 116.795 34.6822 119.804 33.669C122.499 32.7592 126.094 32.6042 129.267 35.9594C129.267 35.9594 132.326 39.5034 129.534 44.0796C129.534 44.0785 124.482 46.17 121.376 48.9086Z" fill="#FDA95B"/>
<path d="M129.261 44.269C130.896 43.3973 132.66 43.1187 134.399 43.2659C136.137 43.413 137.84 43.9938 139.585 44.6138C138.139 43.3874 136.354 42.6301 134.467 42.4425C133.51 42.3606 132.546 42.469 131.631 42.7615C130.724 43.0615 129.873 43.5636 129.261 44.269Z" fill="#C244B5"/>
<path d="M129.675 44.1256C130.624 43.4644 131.418 42.6052 132.003 41.6072C132.565 40.6042 132.938 39.3764 132.654 38.2217C132.301 39.2582 131.845 40.2563 131.291 41.2006C130.768 42.1386 130.131 43.0462 129.675 44.1256ZM133.885 60.0526C133.76 60.2065 133.234 59.9965 132.658 60.0605C132.08 60.0897 131.594 60.3806 131.446 60.2481C131.281 60.1358 131.706 59.4045 132.6 59.3304C133.494 59.2562 134.03 59.9167 133.885 60.0526ZM137.58 60.6862C137.418 60.7985 136.968 60.4615 136.397 60.3638C135.835 60.2368 135.286 60.3862 135.179 60.2189C135.051 60.0627 135.655 59.4764 136.536 59.646C137.416 59.8156 137.757 60.5907 137.58 60.6862Z" fill="#C244B5"/>
<path d="M136.518 61.9539C136.491 62.3538 136.264 62.665 136.011 62.647C135.759 62.629 135.574 62.292 135.602 61.8922C135.631 61.4923 135.856 61.1811 136.109 61.1991C136.362 61.2171 136.546 61.554 136.518 61.9539ZM133.093 61.7214C133.066 62.1213 132.838 62.4313 132.585 62.4145C132.333 62.3976 132.15 62.0595 132.176 61.6585C132.203 61.2575 132.43 60.9486 132.684 60.9666C132.938 60.9845 133.12 61.3215 133.093 61.7214Z" fill="#454545"/>
<path d="M134.277 65.3842C134.242 65.3812 134.208 65.3657 134.183 65.3404C134.158 65.3152 134.142 65.2818 134.139 65.2463C134.136 65.2107 134.146 65.1752 134.166 65.1459C134.187 65.1167 134.217 65.0957 134.251 65.0866C134.623 64.9956 135.188 64.7664 135.222 64.5631C135.234 64.489 135.146 64.3856 134.98 64.2812C133.885 63.5903 134.229 61.6864 134.244 61.6055C134.253 61.5677 134.276 61.5347 134.309 61.5136C134.341 61.4924 134.381 61.4847 134.419 61.4919C134.457 61.4991 134.491 61.5208 134.514 61.5524C134.537 61.584 134.547 61.6231 134.541 61.6617C134.541 61.6797 134.221 63.4432 135.142 64.0206C135.428 64.2014 135.556 64.398 135.521 64.608C135.443 65.0809 134.51 65.3303 134.323 65.3764C134.308 65.3812 134.293 65.3838 134.277 65.3842Z" fill="#C244B5"/>
<path d="M132.046 65.9824C132.013 66.8372 132.608 67.564 133.394 67.6179C134.181 67.6718 134.863 67.0304 134.945 66.179L132.046 65.9824Z" fill="white"/>
<path d="M134.856 66.5744C134.898 66.4469 134.927 66.315 134.94 66.1812L132.046 65.9824C132.041 66.1165 132.051 66.2508 132.078 66.3823L134.856 66.5744Z" fill="white"/>
<path d="M159.99 78.6591L159.606 81.5932L156.232 80.7743L156.712 77.8369L159.99 78.6591Z" fill="#FFCEC8"/>
<path d="M155.34 70.9987C155.696 70.8538 156.107 71.0526 156.306 71.4693L157.409 73.1543L159.003 67.5716C159.07 67.3267 159.298 67.2132 159.506 67.3334C159.592 67.3934 159.659 67.4769 159.699 67.5739C159.739 67.6709 159.75 67.7773 159.731 67.8805L159.079 71.8928L161.079 67.6614C161.097 67.6134 161.126 67.5704 161.164 67.536C161.202 67.5016 161.247 67.4768 161.297 67.4637C161.346 67.4506 161.398 67.4496 161.448 67.4608C161.498 67.4719 161.545 67.4949 161.584 67.5278C161.671 67.6032 161.732 67.704 161.758 67.8159C161.784 67.9278 161.774 68.0451 161.73 68.1512L161.717 68.1894C161.726 68.1793 159.901 72.4107 159.901 72.4107L161.939 68.8858C161.956 68.8527 161.979 68.8233 162.007 68.7993C162.035 68.7753 162.068 68.7571 162.103 68.7459C162.138 68.7347 162.175 68.7307 162.212 68.7341C162.249 68.7375 162.285 68.7482 162.318 68.7656C162.41 68.822 162.479 68.9099 162.512 69.0131C162.545 69.1163 162.539 69.2278 162.496 69.3273L160.87 73.2116L162.967 70.8021C163.094 70.6628 163.205 70.6258 163.349 70.7651C163.38 70.7942 163.405 70.8284 163.424 70.8661C163.46 70.9424 163.476 71.026 163.473 71.11C163.47 71.194 163.446 71.276 163.405 71.3492L159.996 78.6617L156.717 77.8395C156.717 77.8395 156.553 77.033 156.425 75.6693C156.297 74.3056 155.34 70.9987 155.34 70.9987Z" fill="#FFCEC8"/>
<path d="M133.753 116.646L134.749 71.3459L123.83 69.8418L123.436 116.646H133.753Z" fill="#C244B5"/>
<path d="M98.3475 114.82L102.649 109.316L97.6106 97.5319L112.987 84.6423L114.406 98.6743C114.406 98.6743 106.788 103.93 103.929 116.647H123.436L123.83 69.8431L116.682 68.5659C115.813 68.4137 114.922 68.437 114.062 68.6343C113.202 68.8317 112.39 69.1991 111.674 69.715C106.81 73.1455 96.7592 81.6005 90.8215 90.9798C90.0891 92.1357 89.3028 94.8417 89.3028 94.8417C88.7998 97.4219 89.1817 100.096 90.3868 102.433L98.3475 114.82Z" fill="#464646"/>
<path d="M112.987 84.7841C112.968 84.784 112.948 84.7797 112.93 84.7716C112.912 84.7635 112.896 84.7517 112.883 84.737C112.871 84.7233 112.861 84.7074 112.855 84.69C112.849 84.6727 112.847 84.6544 112.848 84.6361C112.849 84.6178 112.854 84.5999 112.862 84.5835C112.87 84.567 112.881 84.5524 112.895 84.5404C112.922 84.5157 115.591 82.1051 115.332 77.7883C115.33 77.7516 115.342 77.7155 115.366 77.6879C115.391 77.6603 115.425 77.6435 115.462 77.6412C115.48 77.6395 115.499 77.6416 115.516 77.6473C115.534 77.653 115.55 77.6623 115.564 77.6745C115.578 77.6867 115.589 77.7016 115.596 77.7183C115.604 77.735 115.609 77.7531 115.609 77.7715C115.876 82.2298 113.108 84.7246 113.08 84.7493C113.054 84.7717 113.021 84.7841 112.987 84.7841Z" fill="#333333"/>
<path d="M128.023 116.49C128.009 116.49 127.995 116.487 127.981 116.483C127.473 116.275 127.349 115.313 127.614 113.622C127.614 113.601 127.916 111.859 128.143 111.362C128.106 111.303 128.057 111.238 128.004 111.167C127.807 110.903 127.538 110.542 127.538 110.169C129.04 102.898 128.874 95.9546 128.715 89.2397C128.587 83.8479 128.454 78.2641 129.192 72.5859C129.202 72.5633 129.219 72.5445 129.24 72.5324C129.261 72.5202 129.286 72.5153 129.31 72.5185C129.335 72.5217 129.357 72.5328 129.375 72.55C129.392 72.5672 129.403 72.5897 129.407 72.614C128.67 78.2753 128.804 83.8468 128.932 89.2385C129.091 95.9659 129.256 102.921 127.751 110.196C127.751 110.474 127.988 110.79 128.177 111.043C128.245 111.135 128.307 111.218 128.35 111.289C128.354 111.296 128.358 111.304 128.36 111.312C128.365 111.33 128.366 111.349 128.362 111.368C128.358 111.386 128.349 111.404 128.336 111.418C128.211 111.724 127.402 114.87 127.808 115.969C127.826 116.037 127.858 116.101 127.902 116.155C127.946 116.21 128.001 116.255 128.063 116.287C128.089 116.299 128.11 116.32 128.121 116.346C128.132 116.372 128.133 116.401 128.123 116.428C128.114 116.446 128.1 116.462 128.082 116.473C128.064 116.484 128.044 116.49 128.023 116.49ZM128.69 77.1329C128.69 77.2607 128.652 77.3856 128.581 77.4918C128.51 77.598 128.41 77.6808 128.291 77.7297C128.173 77.7786 128.044 77.7913 127.918 77.7664C127.793 77.7415 127.678 77.68 127.588 77.5897C127.497 77.4993 127.436 77.3842 127.411 77.259C127.386 77.1337 127.399 77.0038 127.448 76.8858C127.496 76.7678 127.579 76.6669 127.685 76.5959C127.792 76.5249 127.917 76.4871 128.044 76.4871C128.216 76.4871 128.38 76.5551 128.501 76.6762C128.622 76.7974 128.69 76.9616 128.69 77.1329Z" fill="white"/>
<path d="M128.415 90.8374C128.415 90.9651 128.377 91.0899 128.306 91.196C128.235 91.302 128.134 91.3846 128.016 91.4334C127.898 91.4821 127.768 91.4947 127.643 91.4697C127.517 91.4446 127.402 91.383 127.312 91.2926C127.222 91.2023 127.161 91.0872 127.136 90.9619C127.111 90.8366 127.124 90.7068 127.173 90.5889C127.222 90.4709 127.304 90.3701 127.411 90.2992C127.517 90.2283 127.642 90.1904 127.769 90.1904C127.854 90.1904 127.938 90.2072 128.017 90.2397C128.095 90.2722 128.166 90.3199 128.226 90.38C128.286 90.4401 128.334 90.5114 128.366 90.5899C128.399 90.6684 128.415 90.7525 128.415 90.8374ZM128.039 105.334C128.039 105.462 128.001 105.587 127.93 105.693C127.859 105.8 127.758 105.882 127.64 105.931C127.522 105.98 127.392 105.993 127.267 105.968C127.142 105.943 127.027 105.882 126.936 105.791C126.846 105.701 126.784 105.586 126.759 105.461C126.735 105.335 126.747 105.205 126.796 105.087C126.845 104.969 126.928 104.868 127.034 104.797C127.14 104.726 127.265 104.689 127.393 104.689C127.564 104.689 127.729 104.757 127.85 104.878C127.971 104.999 128.039 105.163 128.039 105.334Z" fill="white"/>
<path d="M103.928 116.643L104.834 113.626L106.71 114.794C106.761 114.824 106.821 114.834 106.879 114.822C106.937 114.81 106.988 114.777 107.022 114.728C107.057 114.68 107.071 114.621 107.064 114.562C107.056 114.503 107.026 114.45 106.981 114.412L105.082 112.895C105.053 112.871 105.033 112.84 105.024 112.804C105.015 112.768 105.019 112.731 105.033 112.697C105.043 112.676 105.056 112.657 105.073 112.642C105.09 112.626 105.11 112.614 105.132 112.607C105.153 112.599 105.176 112.597 105.199 112.599C105.222 112.601 105.244 112.607 105.265 112.618L107.303 113.742C107.353 113.77 107.412 113.778 107.468 113.766C107.525 113.754 107.574 113.721 107.608 113.674C107.641 113.627 107.656 113.57 107.65 113.513C107.644 113.455 107.617 113.403 107.574 113.364L105.552 111.505C105.519 111.474 105.498 111.432 105.493 111.386C105.489 111.34 105.501 111.295 105.529 111.258C105.556 111.221 105.595 111.195 105.64 111.186C105.685 111.176 105.731 111.184 105.771 111.206L107.955 112.479C108.02 112.516 108.097 112.527 108.17 112.511C108.243 112.495 108.308 112.452 108.352 112.391C108.395 112.329 108.414 112.254 108.406 112.18C108.397 112.105 108.361 112.036 108.304 111.987L106.381 110.353C106.376 110.348 106.373 110.341 106.372 110.334C106.37 110.327 106.372 110.32 106.376 110.314C106.379 110.307 106.385 110.303 106.392 110.3C106.398 110.298 106.406 110.298 106.413 110.3L108.495 111.055C108.558 111.079 108.629 111.078 108.691 111.052C108.754 111.025 108.804 110.976 108.831 110.914C108.858 110.852 108.86 110.781 108.836 110.718C108.812 110.654 108.765 110.602 108.704 110.573L105.843 109.112C105.753 109.064 105.653 109.035 105.551 109.026C105.449 109.017 105.346 109.03 105.249 109.062C105.152 109.094 105.062 109.145 104.985 109.213C104.908 109.281 104.846 109.364 104.802 109.456L103.426 112.365L101.933 110.231L99.5977 113.229L103.342 116.643H103.928Z" fill="#FFCEC8"/>
<path d="M146.229 116.642C144.608 107.112 140.837 101.196 140.837 101.196L142.611 94.8365L148.653 101.712C150.64 103.975 153.616 104.687 156.235 103.525C158.755 102.409 160.496 99.7587 160.729 96.6933L161.318 79.4846L155.372 77.4043L152.279 91.5082L143.077 76.4282C142.368 75.2661 141.328 74.3429 140.089 73.7772L134.749 71.3408L133.753 116.642H146.229Z" fill="#464646"/>
<path d="M142.61 94.9789C142.589 94.9789 142.568 94.9742 142.549 94.9651C142.531 94.9561 142.514 94.943 142.501 94.9267C142.488 94.9104 142.479 94.8914 142.474 94.8711C142.469 94.8507 142.469 94.8296 142.474 94.8093C142.493 94.7261 144.301 86.3408 141.942 76.1954C141.934 76.1593 141.94 76.1214 141.96 76.0901C141.98 76.0587 142.011 76.0363 142.047 76.028C142.083 76.0197 142.121 76.026 142.152 76.0456C142.184 76.0652 142.206 76.0964 142.214 76.1325C144.588 86.342 142.765 94.7857 142.746 94.8699C142.739 94.9008 142.721 94.9284 142.697 94.9483C142.672 94.9681 142.641 94.9789 142.61 94.9789ZM151.745 95.4832H151.726C151.691 95.4769 151.659 95.4569 151.638 95.4275C151.617 95.3981 151.608 95.3617 151.614 95.326L152.145 91.49C152.147 91.4716 152.153 91.4539 152.162 91.4378C152.171 91.4218 152.183 91.4078 152.198 91.3966C152.213 91.3855 152.23 91.3775 152.248 91.373C152.266 91.3686 152.284 91.3679 152.302 91.3709C152.339 91.3762 152.372 91.3957 152.394 91.4251C152.416 91.4545 152.426 91.4916 152.421 91.5282L151.889 95.3641C151.884 95.3984 151.867 95.4296 151.84 95.4516C151.814 95.4737 151.78 95.485 151.745 95.4832ZM161.19 83.5192C161.176 83.519 161.162 83.5168 161.148 83.5124L155.297 81.7152C155.279 81.7099 155.263 81.7012 155.249 81.6896C155.235 81.678 155.223 81.6636 155.215 81.6474C155.206 81.6312 155.201 81.6135 155.199 81.5952C155.197 81.5769 155.199 81.5585 155.205 81.5411C155.216 81.5059 155.241 81.4766 155.273 81.4594C155.306 81.4421 155.344 81.4384 155.379 81.449L161.23 83.2462C161.248 83.2515 161.264 83.2602 161.278 83.2718C161.293 83.2834 161.304 83.2977 161.313 83.3139C161.322 83.3301 161.327 83.3478 161.329 83.3661C161.331 83.3843 161.329 83.4028 161.323 83.4203C161.314 83.4488 161.297 83.4737 161.273 83.4914C161.249 83.5092 161.22 83.5189 161.19 83.5192ZM159.923 81.996C159.767 81.996 159.615 81.9499 159.486 81.8635C159.357 81.7771 159.256 81.6543 159.196 81.5106C159.137 81.3669 159.121 81.2088 159.152 81.0563C159.182 80.9038 159.257 80.7637 159.367 80.6537C159.477 80.5437 159.617 80.4689 159.769 80.4385C159.922 80.4082 160.08 80.4237 160.224 80.4833C160.367 80.5428 160.49 80.6436 160.576 80.7729C160.663 80.9022 160.709 81.0542 160.709 81.2097C160.709 81.4182 160.626 81.6182 160.479 81.7657C160.331 81.9132 160.131 81.996 159.923 81.996ZM159.923 80.7042C159.823 80.7044 159.725 80.7343 159.642 80.7901C159.558 80.8459 159.494 80.9251 159.455 81.0177C159.417 81.1103 159.407 81.2121 159.427 81.3103C159.447 81.4085 159.495 81.4987 159.566 81.5694C159.637 81.6402 159.727 81.6883 159.825 81.7078C159.924 81.7272 160.025 81.7171 160.118 81.6787C160.21 81.6404 160.29 81.5754 160.345 81.4922C160.401 81.4089 160.43 81.311 160.43 81.2108C160.43 81.0764 160.377 80.9475 160.281 80.8525C160.186 80.7576 160.057 80.7042 159.923 80.7042ZM98.4344 112.75C98.2788 112.75 98.1268 112.704 97.9975 112.618C97.8682 112.531 97.7674 112.409 97.7079 112.265C97.6484 112.121 97.6328 111.963 97.6632 111.811C97.6935 111.658 97.7684 111.518 97.8784 111.408C97.9883 111.298 98.1284 111.223 98.281 111.193C98.4335 111.162 98.5916 111.178 98.7353 111.238C98.8789 111.297 99.0017 111.398 99.0881 111.527C99.1745 111.656 99.2206 111.808 99.2206 111.964C99.2206 112.173 99.1378 112.373 98.9903 112.52C98.8429 112.667 98.6429 112.75 98.4344 112.75ZM98.4344 111.459C98.3342 111.459 98.2362 111.488 98.1529 111.544C98.0696 111.6 98.0047 111.679 97.9663 111.771C97.928 111.864 97.9179 111.966 97.9375 112.064C97.957 112.162 98.0053 112.252 98.0761 112.323C98.147 112.394 98.2372 112.442 98.3355 112.462C98.4338 112.482 98.5357 112.472 98.6282 112.433C98.7208 112.395 98.7999 112.33 98.8556 112.247C98.9112 112.163 98.9409 112.065 98.9409 111.965C98.9409 111.831 98.8876 111.702 98.7926 111.607C98.6976 111.512 98.5687 111.459 98.4344 111.459ZM96.9629 111.049C96.9294 111.049 96.8971 111.037 96.8719 111.015C96.8439 110.991 96.8266 110.957 96.8237 110.92C96.8207 110.883 96.8324 110.847 96.8561 110.818L101.092 105.888C101.116 105.86 101.15 105.843 101.187 105.84C101.224 105.837 101.261 105.849 101.289 105.873C101.317 105.897 101.335 105.931 101.338 105.968C101.34 106.005 101.328 106.042 101.304 106.07L97.0684 111C97.0553 111.015 97.039 111.027 97.0208 111.036C97.0026 111.044 96.9829 111.048 96.9629 111.049Z" fill="#333333"/>
<path d="M126.607 74.5686C126.585 74.5687 126.565 74.5625 126.547 74.5506L123.394 72.4714C123.378 72.4529 123.368 72.4297 123.366 72.4051C123.365 72.3806 123.371 72.3562 123.385 72.3357C123.398 72.3152 123.418 72.2997 123.441 72.2915C123.464 72.2834 123.49 72.283 123.513 72.2906L126.602 74.3282L129.169 72.3996C129.18 72.3908 129.193 72.3844 129.207 72.3808C129.22 72.3771 129.235 72.3763 129.249 72.3782C129.263 72.3802 129.276 72.385 129.288 72.3924C129.3 72.3997 129.311 72.4094 129.319 72.4209C129.335 72.4441 129.342 72.4724 129.338 72.5003C129.334 72.5282 129.32 72.5536 129.298 72.5714L126.668 74.5473C126.65 74.5603 126.629 74.5678 126.607 74.5686Z" fill="white"/>
<path d="M131.423 74.8629C131.408 74.8627 131.393 74.8594 131.379 74.8532C131.365 74.847 131.352 74.8381 131.342 74.8269L129.32 72.5568C129.302 72.535 129.293 72.5073 129.295 72.4792C129.297 72.4511 129.309 72.4247 129.329 72.4051C129.351 72.3869 129.379 72.3776 129.407 72.3791C129.435 72.3805 129.462 72.3926 129.482 72.413L131.454 74.6315L135.081 73.3105C135.106 73.309 135.13 73.3153 135.15 73.3286C135.17 73.3418 135.186 73.3612 135.194 73.3839C135.202 73.4067 135.203 73.4315 135.196 73.4547C135.189 73.4779 135.175 73.4982 135.156 73.5127L131.46 74.8606C131.448 74.8634 131.435 74.8642 131.423 74.8629Z" fill="white"/>
<path d="M124.861 69.9732L128.852 71.857L132.797 71.0808L129.041 69.2959L124.861 69.9732Z" fill="#FFCEC8"/>
<path d="M134.749 71.3462L132.974 69.7051L132.796 71.08L134.001 71.5877L134.749 71.3462Z" fill="#C244B5"/>
<path d="M125.078 68.5186L124.908 70.0822L123.831 69.8418L125.078 68.5186Z" fill="#C244B5"/>
<path d="M47.4226 116.642L47.3799 116.58L49.0087 104.7C42.0713 107.223 34.3971 116.054 34.3971 116.054C34.2364 116.251 34.0904 116.446 33.9365 116.642H47.4226Z" fill="#333333"/>
<path d="M56.1084 69.957L56.3488 70.5063L57.4204 72.9539L64.624 74.4299L68.6667 68.8034L67.8152 66.7972L67.6198 66.3311L56.1084 69.957Z" fill="#FFD3CF"/>
<path d="M105.672 17.8188C105.672 17.8188 101.099 11.6161 94.2148 15.0331C94.2137 15.0331 99.3123 22.3389 105.672 17.8188Z" fill="url(#paint0_linear_1410_1653)"/>
<path d="M103.738 14.6825L102.42 18.3623L97.2891 16.6527L98.7583 12.9863L103.738 14.6825Z" fill="#FFCEC8"/>
<path d="M47.215 116.643H78.2468C85.0606 85.8368 69.456 67.934 69.456 67.934L67.9059 67.0275L68.6675 68.8011L64.6236 74.4254L57.4223 72.9539L56.1092 69.957L54.4759 71.4869L48.1687 100.502C48.1687 100.502 49.9558 105.653 47.2218 109.543C44.4877 113.432 45.2302 115.847 45.2302 115.847L47.215 116.643ZM5.38184 47.4116C5.38184 47.4116 10.0075 41.7346 16.0002 44.4675L11.1645 49.7245L5.38184 47.4116Z" fill="url(#paint1_linear_1410_1653)"/>
<path d="M7.33496 45.5887L8.65369 49.2686L13.7837 47.559L12.3145 43.8926L7.33496 45.5887Z" fill="#FFCEC8"/>
<path d="M12.8264 34.8767C12.5364 34.8205 12.2359 34.8685 11.978 35.0124C11.72 35.1563 11.5212 35.3867 11.4167 35.663L10.0811 38.0398L6.21251 31.208C6.17253 31.1359 6.11801 31.0729 6.05241 31.023C5.9868 30.973 5.91154 30.9373 5.83139 30.918C5.75123 30.8986 5.66794 30.8962 5.58679 30.9107C5.50564 30.9253 5.42839 30.9565 5.35994 31.0025C5.24508 31.0834 5.16123 31.201 5.12223 31.336C5.08323 31.471 5.0914 31.6152 5.14539 31.745L7.15157 36.757L2.96398 31.7348C2.91458 31.6749 2.85372 31.6254 2.78495 31.5892C2.71617 31.5531 2.64088 31.531 2.56347 31.5243C2.48606 31.5176 2.4081 31.5264 2.33414 31.5502C2.26018 31.574 2.19172 31.6124 2.13276 31.663C2.0168 31.7648 1.944 31.9069 1.92918 32.0605C1.91437 32.2141 1.95865 32.3676 2.053 32.4897L2.08558 32.5357C2.06761 32.5245 5.97325 37.5804 5.97325 37.5804L1.89911 33.4658C1.81857 33.3844 1.71299 33.3323 1.59932 33.3181C1.48566 33.3038 1.3705 33.3282 1.27232 33.3872C1.21048 33.424 1.1571 33.4734 1.11567 33.5322C1.07424 33.591 1.0457 33.658 1.03192 33.7286C1.01814 33.7992 1.01942 33.8719 1.03568 33.942C1.05194 34.0121 1.08282 34.078 1.1263 34.1353L4.63655 38.7879L0.739889 36.1156C0.505123 35.9629 0.319782 35.937 0.126578 36.1437C0.0860047 36.185 0.0539446 36.2339 0.0322225 36.2875C-0.00442734 36.3936 -0.00994033 36.5079 0.0163356 36.617C0.0426115 36.7261 0.0995771 36.8253 0.180496 36.9031L7.33579 45.5905L12.3187 43.8944C12.3536 42.9492 12.3319 42.0028 12.2535 41.0603C12.121 39.2912 12.8264 34.8767 12.8264 34.8767Z" fill="#FFCEC8"/>
<path d="M76.8674 115.952C76.8337 116.183 76.7989 116.414 76.7629 116.645H87.087C90.1839 91.5253 85.383 76.6879 85.383 76.6879L105.672 17.8179C105.25 17.9839 104.81 18.1007 104.362 18.1661C102.713 18.4043 101.104 17.6797 99.9542 16.4812C97.5234 13.946 94.2131 15.0355 94.2131 15.0355L70.8758 67.5422L69.456 67.9364C82.7017 89.4585 76.8674 115.952 76.8674 115.952ZM19.9384 76.1577L45.7503 88.5138C43.7699 94.4728 33.6065 107.206 25.6177 116.642H36.117C37.412 115.224 38.8294 113.923 40.3529 112.754C45.4268 108.864 48.5888 104.91 48.5888 104.91C58.2603 91.878 54.4759 71.486 54.4759 71.486L46.1704 73.6944L24.8281 64.443L16.0002 44.4666C16.0002 44.4666 14.1075 43.7309 11.5846 46.4638C9.0617 49.1967 5.38184 47.4107 5.38184 47.4107L14.5321 70.3751C15.544 72.9132 17.474 74.9776 19.9384 76.1577Z" fill="#464646"/>
<path d="M68.0895 77.0082C68.0668 77.0082 68.0447 77.0007 68.0266 76.9868L64.5579 74.5156C64.5421 74.5093 64.5279 74.4995 64.5165 74.4869C64.505 74.4743 64.4966 74.4592 64.4918 74.4429C64.487 74.4265 64.486 74.4093 64.4889 74.3925C64.4917 74.3758 64.4984 74.3598 64.5083 74.346C64.5182 74.3321 64.5311 74.3207 64.5461 74.3126C64.561 74.3045 64.5776 74.2999 64.5947 74.2991C64.6117 74.2984 64.6286 74.3015 64.6442 74.3082C64.6599 74.315 64.6738 74.3252 64.6849 74.3382L68.0682 76.7476L72.367 71.2064C72.3851 71.1842 72.4109 71.1698 72.4393 71.166C72.4677 71.1623 72.4965 71.1695 72.5197 71.1862C72.5421 71.2045 72.5565 71.2307 72.5601 71.2593C72.5636 71.288 72.556 71.3169 72.5388 71.3401L68.176 76.9644C68.1658 76.9777 68.1527 76.9885 68.1377 76.9961C68.1228 77.0037 68.1063 77.0078 68.0895 77.0082Z" fill="white"/>
<path d="M63.3072 78.3223C63.2954 78.322 63.2837 78.3201 63.2723 78.3166L55.0207 75.5309C54.9996 75.5174 54.9835 75.4972 54.9752 75.4736C54.9668 75.4499 54.9666 75.4241 54.9746 75.4003C54.9826 75.3765 54.9984 75.3561 55.0194 75.3423C55.0404 75.3285 55.0654 75.3222 55.0904 75.3242L63.2398 78.0751L64.5181 74.393C64.5282 74.3661 64.5483 74.3441 64.5743 74.3315C64.6002 74.319 64.6299 74.3169 64.6574 74.3256C64.6843 74.3358 64.7063 74.3559 64.7189 74.3818C64.7314 74.4077 64.7335 74.4375 64.7247 74.4649L63.4105 78.2493C63.4026 78.2704 63.3885 78.2887 63.3701 78.3017C63.3517 78.3147 63.3297 78.3219 63.3072 78.3223Z" fill="white"/>
<path d="M63.2928 115.286C63.2729 115.286 63.2535 115.281 63.2366 115.27C63.2196 115.26 63.2057 115.245 63.1962 115.228C63.1835 115.202 63.1811 115.173 63.1895 115.146C63.1978 115.118 63.2163 115.095 63.2411 115.081C63.7207 114.823 64.042 113.471 64.352 112.16C64.689 110.757 65.0035 109.417 65.5618 108.989C65.4045 108.938 65.3675 108.877 65.3585 108.82C65.3547 108.788 65.3616 108.756 65.3781 108.729C65.3946 108.702 65.4197 108.681 65.4495 108.67C65.5002 108.651 65.5548 108.643 65.609 108.649C65.5112 108.504 65.4113 108.348 65.309 108.187C65.0518 107.783 64.7856 107.364 64.5227 107.103C64.5027 107.083 64.4914 107.055 64.4913 107.026C64.4914 106.997 64.5027 106.969 64.5227 106.948C65.9201 105.552 66.3975 103.644 66.8592 101.798C67.3837 91.2663 66.6345 82.5698 64.5149 74.4508C64.5086 74.4228 64.5133 74.3935 64.5279 74.3689C64.5425 74.3442 64.566 74.3261 64.5935 74.3182C64.6213 74.3119 64.6505 74.3164 64.6751 74.3308C64.6997 74.3452 64.7179 74.3684 64.7261 74.3957C66.8603 82.5373 67.6028 91.255 67.0737 101.83C66.6098 103.692 66.1347 105.596 64.7519 107.027C65.026 107.354 65.2735 107.703 65.4921 108.069C65.6615 108.349 65.8464 108.619 66.0459 108.878L66.0538 108.887C66.0671 108.904 66.0753 108.925 66.0773 108.946C66.0793 108.968 66.075 108.989 66.065 109.008V109.014C66.0555 109.026 66.0441 109.036 66.0313 109.044L66.0088 109.052C65.9983 109.056 65.9869 109.056 65.9763 109.052H65.9673C65.3214 109.052 64.9249 110.723 64.5744 112.197C64.2374 113.615 63.9207 114.953 63.3545 115.257C63.3375 115.273 63.3159 115.283 63.2928 115.286Z" fill="white"/>
<path d="M63.8848 80.9984C63.8848 81.1128 63.9187 81.2247 63.9823 81.3198C64.0458 81.4149 64.1362 81.4891 64.2419 81.5329C64.3476 81.5766 64.4639 81.5881 64.5761 81.5658C64.6883 81.5435 64.7914 81.4884 64.8723 81.4075C64.9532 81.3266 65.0083 81.2235 65.0306 81.1113C65.053 80.999 65.0415 80.8827 64.9977 80.777C64.9539 80.6713 64.8798 80.581 64.7846 80.5174C64.6895 80.4538 64.5777 80.4199 64.4633 80.4199C64.3098 80.4199 64.1627 80.4809 64.0542 80.5894C63.9457 80.6978 63.8848 80.845 63.8848 80.9984Z" fill="white"/>
<path d="M64.7269 91.7732C65.0464 91.7732 65.3054 91.5142 65.3054 91.1947C65.3054 90.8752 65.0464 90.6162 64.7269 90.6162C64.4074 90.6162 64.1484 90.8752 64.1484 91.1947C64.1484 91.5142 64.4074 91.7732 64.7269 91.7732Z" fill="white"/>
<path d="M64.4105 101.76C64.73 101.76 64.989 101.501 64.989 101.182C64.989 100.863 64.73 100.604 64.4105 100.604C64.091 100.604 63.832 100.863 63.832 101.182C63.832 101.501 64.091 101.76 64.4105 101.76Z" fill="white"/>
<path d="M61.3096 113.639C61.3096 113.753 61.3435 113.865 61.4071 113.96C61.4706 114.056 61.561 114.13 61.6667 114.173C61.7724 114.217 61.8887 114.229 62.0009 114.206C62.1131 114.184 62.2162 114.129 62.2971 114.048C62.378 113.967 62.4331 113.864 62.4554 113.752C62.4778 113.64 62.4663 113.523 62.4225 113.418C62.3787 113.312 62.3046 113.222 62.2094 113.158C62.1143 113.094 62.0025 113.061 61.8881 113.061C61.7347 113.061 61.5878 113.122 61.4793 113.23C61.3709 113.339 61.3099 113.486 61.3096 113.639Z" fill="white"/>
<path d="M56.1084 69.9577L56.3488 70.507C57.237 71.3716 58.3442 71.9777 59.5512 72.2599C60.7582 72.542 62.0194 72.4897 63.1989 72.1084C64.3783 71.7271 65.4315 71.0313 66.2449 70.096C67.0583 69.1606 67.6013 68.0211 67.8152 66.8001L67.6198 66.334L56.1084 69.9577Z" fill="#FFB2A9"/>
<path d="M63.5907 71.3228C64.4141 70.9704 65.16 70.4592 65.7858 69.8185C66.4116 69.1778 66.9051 68.4201 67.238 67.5887C67.571 66.7572 67.7369 65.8683 67.7263 64.9728C67.7157 64.0772 67.5288 63.1925 67.1762 62.3692L64.4298 55.9541L51.8906 61.3223L54.637 67.7373C55.3493 69.3998 56.6926 70.7114 58.3716 71.3838C60.0506 72.0561 61.9279 72.0342 63.5907 71.3228Z" fill="#FFD3CF"/>
<path d="M66.3131 62.876C66.8489 63.9375 67.2252 64.8272 68.2867 64.2914C69.3482 63.7556 70.6939 61.9965 70.1581 60.935C70.0306 60.6825 69.8547 60.4577 69.6403 60.2732C69.426 60.0887 69.1774 59.9483 68.9087 59.8599C68.6401 59.7715 68.3567 59.7368 68.0746 59.758C67.7926 59.7791 67.5175 59.8556 67.2651 59.983C67.0126 60.1105 66.7877 60.2864 66.6032 60.5008C66.4188 60.7151 66.2783 60.9637 66.1899 61.2324C66.1015 61.501 66.0669 61.7844 66.088 62.0665C66.1092 62.3485 66.1856 62.6236 66.3131 62.876ZM55.6284 67.2276C55.9654 68.3678 56.3091 69.272 55.169 69.6124C54.0289 69.9527 51.843 69.6011 51.5026 68.4621C51.3388 67.915 51.399 67.3252 51.67 66.8225C51.941 66.3197 52.4006 65.9453 52.9477 65.7814C53.4949 65.6176 54.0847 65.6778 54.5874 65.9488C55.0901 66.2198 55.4646 66.6794 55.6284 67.2265V67.2276Z" fill="#FFD3CF"/>
<path d="M68.8591 59.8458C68.8591 59.8458 69.7184 57.8553 69.1073 55.6481C68.7535 54.3698 67.519 53.4959 66.2036 53.6554L66.1452 53.6621C66.1452 53.6621 66.0138 49.3262 61.2309 48.1693C56.4479 47.0123 54.6866 52.7691 54.6866 52.7691C54.4094 52.5566 54.0722 52.4371 53.723 52.4276C53.3738 52.4181 53.0306 52.5192 52.7422 52.7163C52.7422 52.7163 51.8223 53.1892 52.2165 54.3192C52.2165 54.3192 49.9981 53.023 47.8268 55.8918C45.1466 59.4481 51.6336 67.0696 51.6336 67.0696C51.6336 67.0696 51.9492 65.5453 53.8408 65.6498L52.3963 62.5753C52.3963 62.5753 56.1536 63.1797 56.8636 59.7671C56.8636 59.7671 59.4392 61.8093 61.5937 60.267C63.9065 58.6113 64.64 61.6217 66.4496 60.6882C66.4541 60.6837 67.3381 59.4302 68.8591 59.8458Z" fill="#464646"/>
<path d="M105.714 0.0997058C105.828 0.180625 105.912 0.298278 105.951 0.433259C105.99 0.568239 105.982 0.712481 105.928 0.842193L103.926 5.84865L108.109 0.832083C108.159 0.772114 108.22 0.722604 108.289 0.686449C108.357 0.650295 108.433 0.628221 108.51 0.621527C108.587 0.614832 108.665 0.623649 108.739 0.647459C108.813 0.67127 108.882 0.709594 108.941 0.760192C109.057 0.861999 109.129 1.00417 109.144 1.15777C109.159 1.31136 109.115 1.46483 109.02 1.58693L108.988 1.63411C109.069 1.57939 109.165 1.55017 109.263 1.55017C109.361 1.55017 109.457 1.57939 109.538 1.63411C109.63 1.69974 109.698 1.7931 109.732 1.90034C109.766 2.00758 109.765 2.12299 109.728 2.22944C108.667 4.03568 107.493 6.08005 106.437 7.88404L110.334 5.21063C110.568 5.05787 110.754 5.03203 110.947 5.23871C110.987 5.27999 111.02 5.32884 111.041 5.38249C111.078 5.48854 111.083 5.60287 111.057 5.71196C111.031 5.82104 110.974 5.92032 110.893 5.99805L103.738 14.6855L98.7582 12.9893C98.7232 12.0446 98.7449 11.0986 98.8233 10.1564C98.9525 8.38615 98.2471 3.97165 98.2471 3.97165C98.5377 3.9158 98.8388 3.96468 99.0968 4.10965C99.3549 4.25461 99.5533 4.48628 99.6568 4.76356L100.992 7.14043L104.861 0.308634C104.901 0.236379 104.955 0.173165 105.021 0.122992C105.086 0.0728189 105.161 0.0367785 105.241 0.017143C105.322 -0.00249257 105.405 -0.00529534 105.486 0.00891581C105.567 0.023127 105.645 0.0540429 105.714 0.0997058Z" fill="#FFCEC8"/>
<path d="M105.101 6.79322C105.074 6.7933 105.048 6.78462 105.027 6.76851C105.002 6.74878 104.985 6.71987 104.981 6.6881C104.977 6.65632 104.986 6.62426 105.006 6.59889L108.894 1.55087C108.904 1.53833 108.916 1.52782 108.93 1.51993C108.944 1.51204 108.959 1.50694 108.974 1.50491C108.99 1.50287 109.006 1.50395 109.021 1.50808C109.037 1.5122 109.051 1.5193 109.064 1.52896C109.076 1.53863 109.087 1.55066 109.094 1.56439C109.102 1.57811 109.107 1.59326 109.11 1.60896C109.112 1.62465 109.11 1.6406 109.106 1.65588C109.102 1.67116 109.095 1.68548 109.085 1.69802L105.197 6.74604C105.185 6.76078 105.171 6.77271 105.154 6.7809C105.138 6.78909 105.12 6.79331 105.101 6.79322Z" fill="#FF9C91"/>
<path d="M58.2183 65.407C58.3385 65.7024 58.6137 65.8698 58.8327 65.781C59.0518 65.6923 59.1326 65.38 59.0125 65.0835C58.8923 64.7869 58.6171 64.6207 58.3969 64.7094C58.1767 64.7982 58.0981 65.1104 58.2183 65.407Z" fill="#464646"/>
<path d="M59.1673 66.6435L58.3429 66.9805C57.9232 67.1501 57.4534 67.1464 57.0364 66.9702C56.6195 66.7939 56.2895 66.4595 56.1188 66.0403L55.6133 64.7968L59.6077 63.1748L60.1131 64.4183C60.2659 64.7948 60.2794 65.2134 60.1514 65.5989C60.0233 65.9845 59.7621 66.3118 59.4145 66.5222C59.3353 66.5689 59.2527 66.6094 59.1673 66.6435ZM55.9413 64.9327L56.3513 65.9437C56.4975 66.3008 56.7792 66.5854 57.1347 66.7355C57.4902 66.8856 57.8906 66.8888 58.2485 66.7446L59.073 66.4076C59.4301 66.2614 59.7147 65.9797 59.8648 65.6242C60.0149 65.2687 60.0181 64.8683 59.8739 64.5104L59.4639 63.4994L55.9413 64.9327Z" fill="white"/>
<path d="M62.2022 63.7886C62.3224 64.084 62.5976 64.2525 62.8178 64.1627C63.0379 64.0728 63.1165 63.7617 62.9964 63.4662C62.8762 63.1708 62.601 63.0023 62.3819 63.0911C62.1629 63.1798 62.0798 63.4921 62.2022 63.7886Z" fill="#464646"/>
<path d="M64.2153 64.5963L63.3908 64.9333C62.9711 65.1033 62.5012 65.0997 62.0842 64.9234C61.6672 64.7471 61.3372 64.4125 61.1667 63.9931L60.6612 62.7497L64.65 61.1299L65.1555 62.3734C65.3086 62.7498 65.3224 63.1685 65.1943 63.5542C65.0663 63.9399 64.8047 64.2672 64.4568 64.4773C64.3794 64.5229 64.2986 64.5627 64.2153 64.5963ZM60.9892 62.8856L61.3992 63.8965C61.5455 64.2536 61.8271 64.5383 62.1826 64.6883C62.5381 64.8384 62.9385 64.8417 63.2964 64.6974L64.1209 64.3604C64.478 64.2142 64.7627 63.9325 64.9127 63.577C65.0628 63.2215 65.0661 62.8211 64.9218 62.4632L64.5118 61.4523L60.9892 62.8856ZM64.149 67.1372C64.3323 67.6499 64.3079 68.214 64.0809 68.709C63.854 69.2039 63.4425 69.5905 62.9343 69.7861C62.4261 69.9818 61.8616 69.971 61.3613 69.756C60.8611 69.541 60.4647 69.1389 60.2568 68.6356L64.149 67.1372Z" fill="white"/>
<path d="M59.6895 62.8613L62.3898 65.7291L60.9644 66.7917L59.6895 62.8613Z" fill="#FFCEC8"/>
<path d="M61.0298 66.901L61.0399 66.8942L62.4642 65.8316C62.4786 65.8211 62.4905 65.8077 62.4992 65.7922C62.5079 65.7767 62.5132 65.7595 62.5148 65.7418C62.5164 65.7242 62.5143 65.7064 62.5085 65.6898C62.5027 65.6731 62.4933 65.6579 62.4811 65.6452L59.7852 62.7763C59.7619 62.7544 59.7311 62.7422 59.6991 62.7422C59.6671 62.7422 59.6363 62.7544 59.6129 62.7763C59.5896 62.7982 59.5755 62.8281 59.5735 62.8601C59.5715 62.892 59.5817 62.9235 59.6021 62.9482L62.2059 65.7148L60.8939 66.6921C60.8662 66.7107 60.847 66.7395 60.8406 66.7723C60.8341 66.8051 60.841 66.839 60.8596 66.8667C60.8782 66.8944 60.9071 66.9136 60.9399 66.92C60.9726 66.9265 61.0066 66.9196 61.0343 66.901H61.0298Z" fill="#C244B5"/>
<path d="M56.6639 63.4856C56.699 63.5435 56.7547 63.5862 56.8198 63.6051C56.8849 63.6241 56.9547 63.6179 57.0155 63.5878L58.3319 62.9273C58.4211 62.8735 58.4852 62.7865 58.5103 62.6854C58.5354 62.5843 58.5193 62.4774 58.4656 62.3881C58.4374 62.3413 58.3997 62.3009 58.3549 62.2695C58.3102 62.2382 58.2594 62.2165 58.2057 62.2059C58.1521 62.1953 58.0969 62.1961 58.0435 62.2081C57.9902 62.2202 57.94 62.2432 57.8961 62.2758L56.7358 63.1317C56.6819 63.1714 56.6446 63.2297 56.6313 63.2954C56.6181 63.361 56.6297 63.4292 56.6639 63.4867V63.4856ZM62.8475 61.0593C62.8671 61.1241 62.8614 61.194 62.8316 61.2548C62.8018 61.3156 62.7501 61.363 62.6869 61.3873L61.3131 61.9186C61.2638 61.9335 61.212 61.9385 61.1607 61.9333C61.1095 61.9281 61.0597 61.9129 61.0143 61.8885C60.9689 61.8641 60.9288 61.831 60.8962 61.791C60.8637 61.7511 60.8393 61.7051 60.8245 61.6557C60.8089 61.6033 60.8044 61.5483 60.8112 61.494C60.818 61.4398 60.8361 61.3875 60.8642 61.3406C60.8923 61.2937 60.9298 61.2532 60.9744 61.2216C61.019 61.19 61.0697 61.168 61.1233 61.157L62.5364 60.8728C62.6022 60.8591 62.6708 60.8707 62.7284 60.9052C62.7861 60.9398 62.8286 60.9948 62.8475 61.0593Z" fill="#464646"/>
<path d="M55.9528 65.0371L64.5785 61.5347C64.6065 61.5238 64.632 61.5074 64.6536 61.4865C64.6751 61.4656 64.6923 61.4406 64.704 61.413C64.7157 61.3853 64.7218 61.3556 64.7218 61.3256C64.7219 61.2955 64.7159 61.2658 64.7043 61.2381C64.6933 61.2102 64.6768 61.1848 64.6559 61.1634C64.6349 61.1419 64.6099 61.1249 64.5823 61.1133C64.5546 61.1016 64.525 61.0957 64.495 61.0957C64.465 61.0957 64.4353 61.1018 64.4077 61.1134L55.7821 64.6158C55.7541 64.6267 55.7285 64.6431 55.707 64.664C55.6854 64.6849 55.6682 64.7099 55.6565 64.7375C55.6448 64.7652 55.6387 64.7949 55.6387 64.8249C55.6386 64.855 55.6446 64.8847 55.6562 64.9124C55.6672 64.9403 55.6837 64.9657 55.7046 64.9871C55.7256 65.0086 55.7506 65.0256 55.7782 65.0372C55.8059 65.0488 55.8356 65.0548 55.8655 65.0548C55.8955 65.0548 55.9252 65.0487 55.9528 65.0371Z" fill="#FF9D5A"/>
<path d="M173.643 59.6496C173.643 59.6496 169.617 70.5746 176.411 73.1065L175.729 81.0458L184.886 81.6355L186.989 64.8841C186.989 64.8841 181.736 48.191 173.643 59.6496Z" fill="#FFD3CF"/>
<path d="M175.728 81.0455L166.864 114.543C166.864 114.543 170.471 109.81 179.557 113.266C188.644 116.721 191.527 109.635 191.527 109.635L186.922 99.4538L184.879 81.6352L180.31 80.4951L175.728 81.0455Z" fill="url(#paint2_linear_1410_1653)"/>
<path d="M180.408 80.3983L181.78 84.5971L184.953 83.594L184.887 81.635L185.255 77.835L180.408 80.3983Z" fill="url(#paint3_linear_1410_1653)"/>
<path d="M176.07 77.1094L180.408 80.3983L178.032 84.6679L174.937 83.4469L175.73 81.0453L176.07 77.1094Z" fill="url(#paint4_linear_1410_1653)"/>
<path d="M197.884 116.642C195.737 114.171 192.572 110.625 191.528 109.632C191.528 109.632 187.485 116.077 177.447 112.416C176.534 112.067 175.58 111.836 174.609 111.729C172.517 111.531 169.252 111.776 166.858 114.537C166.858 114.537 166.739 115.265 166.623 116.64L197.884 116.642ZM155.004 29.1711C155.004 29.1711 159.564 24.6476 163.297 27.4367L158.474 31.8265C158.474 31.8265 155.806 33.1082 155.004 29.1711ZM224.474 60.0972C224.474 60.0972 224.96 58.974 223.203 56.5129C221.813 54.3314 220.332 53.6283 217.93 54.0248L218.968 60.0164C218.968 60.0164 220.844 63.1739 224.474 60.0972Z" fill="#C244B5"/>
<path d="M157.424 28.2643L157.953 31.1769L161.282 30.1918L160.658 27.2803L157.424 28.2643Z" fill="#FFCEC8"/>
<path d="M161.69 20.3839C161.328 20.2558 160.927 20.4748 160.749 20.9017L159.73 22.6428L157.862 17.1454C157.783 16.9039 157.549 16.8017 157.348 16.932C157.265 16.9974 157.203 17.0851 157.169 17.1847C157.135 17.2842 157.131 17.3915 157.156 17.4936L158.005 21.4678L155.799 17.3409C155.779 17.2934 155.748 17.2514 155.709 17.2184C155.669 17.1854 155.622 17.1625 155.572 17.1514C155.522 17.1404 155.47 17.1417 155.42 17.1551C155.37 17.1685 155.324 17.1937 155.287 17.2286C155.204 17.3087 155.149 17.4126 155.129 17.5256C155.109 17.6386 155.125 17.7551 155.174 17.8587L155.19 17.8958C155.18 17.8857 157.212 22.0216 157.212 22.0216L155.001 18.599C154.983 18.5668 154.959 18.5385 154.929 18.5159C154.9 18.4934 154.866 18.4769 154.831 18.4674C154.795 18.458 154.757 18.4559 154.721 18.4611C154.684 18.4663 154.649 18.4788 154.617 18.4979C154.53 18.5585 154.466 18.6482 154.439 18.7511C154.411 18.8539 154.421 18.9632 154.467 19.0595L156.284 22.8584L154.07 20.5557C153.935 20.4232 153.823 20.3917 153.686 20.5377C153.656 20.5679 153.633 20.6033 153.616 20.6422C153.585 20.7201 153.572 20.8045 153.579 20.8883C153.587 20.9722 153.614 21.053 153.659 21.1241L157.426 28.258L160.66 27.2741C160.66 27.2741 160.784 26.4619 160.843 25.0926C160.903 23.7234 161.69 20.3839 161.69 20.3839Z" fill="#FFCEC8"/>
<path d="M222.464 58.3375L220.509 60.5616L218.164 58.0017L220.199 55.8281L222.464 58.3375Z" fill="#FFCEC8"/>
<path d="M222.867 49.3861C223.243 49.4636 223.475 49.8579 223.407 50.315L223.384 52.3369L227.817 48.5874C228.01 48.4212 228.267 48.4549 228.368 48.6705C228.404 48.7683 228.412 48.8744 228.391 48.9765C228.369 49.0786 228.319 49.1724 228.245 49.2468L225.469 52.2156L229.486 49.8073C229.527 49.7774 229.575 49.758 229.626 49.7506C229.677 49.7432 229.729 49.748 229.777 49.7647C229.826 49.7815 229.87 49.8095 229.905 49.8466C229.94 49.8838 229.966 49.9288 229.981 49.978C230.011 50.089 230.005 50.2064 229.965 50.3139C229.924 50.4214 229.851 50.5137 229.756 50.5779L229.723 50.6015C229.736 50.6015 225.864 53.0963 225.864 53.0963L229.523 51.299C229.555 51.2808 229.59 51.2692 229.627 51.265C229.664 51.2608 229.701 51.264 229.737 51.2745C229.772 51.285 229.805 51.3025 229.834 51.326C229.863 51.3495 229.886 51.3785 229.903 51.4113C229.948 51.509 229.956 51.6193 229.926 51.7223C229.896 51.8253 229.83 51.9142 229.741 51.973L226.225 54.3004L229.309 53.467C229.492 53.422 229.606 53.4535 229.646 53.6489C229.656 53.6902 229.658 53.7328 229.652 53.7747C229.639 53.8579 229.606 53.9369 229.557 54.0049C229.507 54.0729 229.442 54.128 229.366 54.1656L222.463 58.3386L220.198 55.8292C220.198 55.8292 220.511 55.0687 221.164 53.8657C221.818 52.6627 222.867 49.3861 222.867 49.3861Z" fill="#FFCEC8"/>
<path d="M173.644 59.6501C173.644 59.6501 172.203 57.4395 173.613 54.7559C173.613 54.7559 175.804 49.9741 182.621 51.8354C189.439 53.6967 187.812 59.7096 187.812 59.7096C187.812 59.7096 189.933 56.9497 194.018 58.811C198.104 60.6723 197.309 66.0112 197.309 66.0112C197.309 66.0112 196.271 69.6192 202.742 69.845C202.742 69.845 206.294 69.5642 207.311 72.333C207.311 72.333 209.914 76.0679 206.126 80.1859C203.51 83.0312 206.373 85.1991 208.395 86.2673C209.835 87.0278 210.845 88.4588 210.941 90.0865C211.038 91.7141 210.419 93.4462 207.572 94.0045C207.572 94.0045 212.535 100.587 207.292 106.698C203.51 111.101 198.964 111.506 198.964 111.506L187.091 100.785L185.261 77.845L186.551 67.4434C186.551 67.4434 183.118 66.2168 182.526 62.1134C182.35 60.8958 181.779 59.7444 180.761 59.0547C180.15 58.6402 179.111 58.3583 177.854 58.3954C176.368 58.4559 174.921 58.8872 173.644 59.6501Z" fill="#FF9D5A"/>
<path d="M164.315 87.124C165.015 90.2523 166.534 93.1391 166.534 93.1391C166.534 93.1391 163.365 106.776 160.201 116.645H168.369C171 106.02 175.39 87.1655 176.069 77.1054L176.406 73.1021C176.406 73.1021 172.897 72.0619 172.498 67.2408C172.43 66.2529 172.502 65.2603 172.71 64.2922L173.639 59.6452L163.293 27.4329C163.293 27.4329 161.238 26.6937 158.111 29.4963C157.296 30.2276 156.013 30.2377 155.25 29.4525C155.162 29.3618 155.079 29.2665 155 29.1672L167.59 82.1063C167.59 82.1063 163.614 83.9945 164.315 87.124ZM195.061 91.4093L224.475 60.0967C221.684 58.5118 221.276 56.9785 221.276 56.9785C219.532 52.1484 217.12 54.4309 217.12 54.4309L188.52 80.9875L188.463 80.9976L195.046 91.4441L195.061 91.4093Z" fill="#464646"/>
<path d="M195.413 116.643H207.71C199.717 111.171 189.975 102.053 189.975 102.053C189.429 99.0363 194.962 91.4463 195.338 90.933L192.48 78.9206L185.255 77.8311C183.412 83.2666 183.696 92.5213 185.769 102.715C186.683 107.222 191.784 113.178 195.413 116.643Z" fill="#464646"/>
<path d="M177.916 112.251C177.887 112.249 177.861 112.236 177.841 112.215C177.822 112.194 177.811 112.167 177.811 112.138C177.811 111.982 177.963 109.07 178.104 106.253C178.236 103.632 178.372 100.92 178.377 100.773C178.387 100.482 179.237 99.0242 179.525 98.5367L177.84 97.7156C177.825 97.7084 177.812 97.6976 177.802 97.6841C177.791 97.6706 177.785 97.6548 177.782 97.6381C177.779 97.6215 177.779 97.6044 177.784 97.5882C177.789 97.5719 177.797 97.5571 177.809 97.5448L179.177 96.0846L177.821 95.4859C177.8 95.476 177.783 95.4599 177.772 95.4398C177.76 95.4197 177.755 95.3966 177.757 95.3735L180.306 80.3811C180.311 80.3568 180.323 80.3347 180.342 80.3183C180.36 80.3018 180.384 80.2919 180.408 80.2901C180.433 80.2891 180.458 80.2966 180.478 80.3112C180.499 80.3259 180.514 80.3469 180.521 80.371L181.419 83.7408L184.868 82.1739C184.881 82.1625 184.897 82.1544 184.914 82.1502C184.931 82.146 184.948 82.1458 184.965 82.1496C184.982 82.1534 184.998 82.1611 185.012 82.1721C185.025 82.1831 185.036 82.1971 185.043 82.213C185.05 82.2289 185.054 82.2462 185.053 82.2637C185.052 82.2811 185.048 82.2981 185.039 82.3134C185.031 82.3287 185.019 82.3418 185.005 82.3517C184.99 82.3616 184.974 82.368 184.956 82.3704L181.392 83.9902C181.378 83.9969 181.363 84.0004 181.347 84.0004C181.332 84.0004 181.316 83.9969 181.302 83.9902C181.288 83.9833 181.276 83.9736 181.266 83.9616C181.256 83.9496 181.248 83.9356 181.244 83.9206L180.435 80.9068L177.984 95.3297L179.402 95.9554C179.417 95.963 179.43 95.9739 179.44 95.9873C179.451 96.0006 179.458 96.0162 179.461 96.0327C179.465 96.0492 179.464 96.0663 179.46 96.0826C179.456 96.099 179.449 96.1143 179.438 96.1273L178.066 97.5875L179.725 98.3963C179.739 98.403 179.75 98.4124 179.76 98.4238C179.77 98.4351 179.777 98.4483 179.781 98.4626C179.785 98.477 179.787 98.4921 179.785 98.5069C179.783 98.5218 179.778 98.5361 179.77 98.5491C179.286 99.3623 178.6 100.593 178.593 100.783C178.593 100.932 178.457 103.523 178.32 106.266C178.179 109.082 178.033 111.995 178.027 112.149C178.024 112.176 178.012 112.202 177.991 112.221C177.971 112.24 177.944 112.251 177.916 112.251Z" fill="white"/>
<path d="M184.928 68.9795C184.816 70.2746 184.655 71.3182 185.95 71.4294C187.245 71.5406 189.505 70.6779 189.617 69.3828C189.659 68.7669 189.458 68.1591 189.057 67.6901C188.655 67.2212 188.086 66.9287 187.471 66.8758C186.856 66.823 186.244 67.0138 185.769 67.4073C185.293 67.8008 184.991 68.3655 184.928 68.9795Z" fill="#FFD3CF"/>
<path d="M178.271 83.6083C178.247 83.6078 178.225 83.6 178.206 83.5858L175.034 81.1652C175.017 81.1589 175.003 81.1489 174.991 81.1359C174.979 81.123 174.971 81.1075 174.966 81.0907C174.961 81.0739 174.961 81.0562 174.964 81.039C174.967 81.0219 174.975 81.0057 174.985 80.9919C174.996 80.9781 175.01 80.9669 175.025 80.9593C175.041 80.9517 175.058 80.9478 175.076 80.9481C175.093 80.9483 175.11 80.9527 175.126 80.9607C175.141 80.9688 175.155 80.9803 175.165 80.9944L178.246 83.3455L180.228 80.4339C180.247 80.4188 180.27 80.4102 180.294 80.4093C180.318 80.4083 180.342 80.4152 180.362 80.4288C180.381 80.4424 180.396 80.462 180.404 80.4848C180.412 80.5076 180.413 80.5323 180.405 80.5552L178.361 83.5611C178.344 83.5854 178.318 83.6019 178.289 83.6072L178.271 83.6083Z" fill="white"/>
<path d="M176.412 73.1071C176.412 73.1071 180.16 73.7338 183.058 71.8164C183.058 71.8164 182.367 74.4235 176.295 74.6246L176.412 73.1071Z" fill="#FFB2A9"/>
<path d="M179.713 62.6887C179.79 62.8707 180.35 62.8122 180.882 63.0257C181.428 63.211 181.812 63.621 181.99 63.5356C182.179 63.4694 181.972 62.6584 181.137 62.345C180.303 62.0316 179.613 62.5157 179.713 62.6887ZM174.759 62.7134C174.883 62.8684 175.406 62.6617 175.978 62.728C176.553 62.7595 177.034 63.0515 177.182 62.9212C177.33 62.7909 176.928 62.081 176.04 62.0035C175.151 61.926 174.617 62.5741 174.759 62.7134Z" fill="#FF9D5A"/>
<path d="M175.251 65.3686C175.168 65.7572 175.301 66.1155 175.548 66.1683C175.795 66.2211 176.061 65.9437 176.144 65.5584C176.227 65.1731 176.095 64.8103 175.848 64.7575C175.601 64.7047 175.334 64.9788 175.251 65.3686ZM179.871 66.2604C179.788 66.6502 179.921 67.0085 180.167 67.0613C180.413 67.1141 180.68 66.8367 180.763 66.4503C180.846 66.0639 180.714 65.7022 180.467 65.6505C180.22 65.5988 179.953 65.8695 179.871 66.2604Z" fill="#454545"/>
<path d="M177.191 69.1729C177.174 69.1727 177.157 69.1693 177.141 69.1628C177.051 69.128 176.264 68.809 176.243 68.3529C176.233 68.1282 176.391 67.9384 176.716 67.7744C177.792 67.233 177.806 65.0853 177.806 65.0639C177.806 65.0275 177.821 64.9925 177.846 64.9666C177.872 64.9408 177.907 64.9261 177.943 64.9258C177.98 64.9261 178.015 64.9408 178.04 64.9666C178.066 64.9925 178.08 65.0275 178.08 65.0639C178.08 65.1594 178.065 67.4026 176.845 68.0193C176.721 68.0811 176.516 68.2058 176.522 68.3394C176.531 68.5405 176.951 68.7887 177.247 68.9078C177.277 68.9193 177.302 68.941 177.318 68.9691C177.333 68.9972 177.339 69.0299 177.333 69.0615C177.327 69.0932 177.31 69.1217 177.285 69.142C177.26 69.1624 177.228 69.1733 177.196 69.1729H177.191Z" fill="#C244B5"/>
<path d="M180.811 68.7737C180.423 68.7728 180.041 68.6806 179.695 68.5047C179.349 68.3288 179.049 68.0741 178.819 67.761C178.59 67.448 178.437 67.0854 178.373 66.7026C178.31 66.3197 178.337 65.9272 178.453 65.5567C178.589 65.1187 178.845 64.7272 179.19 64.4258C179.536 64.1243 179.959 63.9248 180.412 63.8494C180.864 63.7739 181.329 63.8255 181.754 63.9984C182.179 64.1713 182.547 64.4588 182.818 64.8288C183.09 65.1987 183.253 65.6367 183.29 66.094C183.327 66.5513 183.237 67.0099 183.029 67.4188C182.821 67.8277 182.503 68.1709 182.112 68.4101C181.72 68.6493 181.27 68.7752 180.811 68.7737ZM180.811 64.0301C180.33 64.0321 179.861 64.1873 179.473 64.4732C179.086 64.7592 178.799 65.161 178.655 65.6207C178.476 66.1936 178.532 66.814 178.811 67.3455C179.09 67.877 179.568 68.276 180.141 68.4547C180.714 68.6335 181.334 68.5773 181.866 68.2986C182.397 68.0199 182.796 67.5415 182.975 66.9686C183.063 66.6848 183.095 66.3862 183.068 66.0901C183.041 65.7939 182.956 65.506 182.818 65.2428C182.679 64.9796 182.49 64.7462 182.262 64.5561C182.033 64.3659 181.769 64.2227 181.485 64.1346C181.265 64.0652 181.035 64.0299 180.804 64.0301H180.811ZM175.041 67.9695C174.79 67.9693 174.54 67.9315 174.3 67.8571C173.752 67.6866 173.28 67.3313 172.965 66.8519C172.649 66.3724 172.51 65.7984 172.57 65.2278C172.631 64.6571 172.887 64.1251 173.296 63.7223C173.705 63.3195 174.241 63.071 174.812 63.019C175.384 62.967 175.956 63.1148 176.43 63.4372C176.905 63.7596 177.253 64.2366 177.416 64.787C177.578 65.3374 177.545 65.9271 177.321 66.4556C177.097 66.9841 176.697 67.4187 176.189 67.6853C175.835 67.872 175.441 67.9696 175.041 67.9695ZM175.041 63.2259C174.5 63.2264 173.978 63.4205 173.567 63.7732C173.157 64.1258 172.887 64.6137 172.806 65.1483C172.724 65.683 172.837 66.2292 173.123 66.688C173.41 67.1467 173.851 67.4878 174.367 67.6493C174.678 67.7455 175.006 67.7735 175.329 67.7314C175.652 67.6892 175.961 67.578 176.237 67.4052C176.513 67.2323 176.748 67.0021 176.927 66.73C177.105 66.458 177.223 66.1506 177.272 65.8289C177.321 65.5072 177.3 65.1786 177.211 64.8657C177.121 64.5528 176.965 64.2629 176.754 64.0158C176.542 63.7687 176.279 63.5703 175.984 63.4339C175.688 63.2976 175.367 63.2266 175.041 63.2259Z" fill="white"/>
<path d="M178.437 66.3512H178.419L177.321 66.1625C177.294 66.1565 177.269 66.1404 177.253 66.1173C177.237 66.0942 177.23 66.0658 177.234 66.0378C177.24 66.0102 177.256 65.9859 177.279 65.9696C177.302 65.9534 177.33 65.9465 177.358 65.9502L178.455 66.1389C178.477 66.1477 178.496 66.1636 178.509 66.1841C178.522 66.2047 178.528 66.2288 178.526 66.2529C178.524 66.277 178.514 66.2998 178.498 66.3179C178.482 66.3361 178.46 66.3485 178.437 66.3535V66.3512ZM179.145 70.1378C179.089 70.5919 178.859 71.0065 178.503 71.2943C178.147 71.5821 177.694 71.7207 177.238 71.6808C176.782 71.6409 176.359 71.4257 176.059 71.0805C175.759 70.7353 175.604 70.287 175.627 69.83L179.145 70.1378Z" fill="white"/>
<path d="M178.363 58.3157C178.363 58.3157 178.716 60.4421 173.366 61.1576C173.366 61.1576 171.862 57.7305 173.531 54.9639L178.363 58.3157Z" fill="#FF9D5A"/>
<defs>
<linearGradient id="paint0_linear_1410_1653" x1="92.8727" y1="14.8861" x2="96.0556" y2="23.1274" gradientUnits="userSpaceOnUse">
<stop stop-color="#006ED3"/>
<stop offset="1" stop-color="#9AC7F0" stop-opacity="0.9"/>
</linearGradient>
<linearGradient id="paint1_linear_1410_1653" x1="-3.35572" y1="55.8605" x2="60.6373" y2="134.092" gradientUnits="userSpaceOnUse">
<stop stop-color="#006ED3"/>
<stop offset="1" stop-color="#9AC7F0" stop-opacity="0.9"/>
</linearGradient>
<linearGradient id="paint2_linear_1410_1653" x1="163.975" y1="86.1621" x2="194.146" y2="112.282" gradientUnits="userSpaceOnUse">
<stop stop-color="#006ED3"/>
<stop offset="1" stop-color="#9AC7F0" stop-opacity="0.9"/>
</linearGradient>
<linearGradient id="paint3_linear_1410_1653" x1="179.84" y1="78.9605" x2="185.823" y2="84.0857" gradientUnits="userSpaceOnUse">
<stop stop-color="#006ED3"/>
<stop offset="1" stop-color="#9AC7F0" stop-opacity="0.9"/>
</linearGradient>
<linearGradient id="paint4_linear_1410_1653" x1="174.296" y1="78.3674" x2="180.993" y2="84.1616" gradientUnits="userSpaceOnUse">
<stop stop-color="#006ED3"/>
<stop offset="1" stop-color="#9AC7F0" stop-opacity="0.9"/>
</linearGradient>
</defs>
</svg>
